<?xml version="1.0" standalone="no"?>
<!DOCTYPE svg PUBLIC "-//W3C//DTD SVG 20010904//EN"
 "http://www.w3.org/TR/2001/REC-SVG-20010904/DTD/svg10.dtd">
<svg version="1.0" xmlns="http://www.w3.org/2000/svg"
 width="792.000000pt" height="792.000000pt" viewBox="0 0 792.000000 792.000000"
 preserveAspectRatio="xMidYMid meet">
<metadata>
Created by potrace 1.14, written by Peter Selinger 2001-2017
</metadata>
<g transform="translate(0.000000,792.000000) scale(0.100000,-0.100000)"
fill="#000000" stroke="none">
<path d="M2999 7882 c0 -4 -2 -272 -4 -597 -1 -324 -5 -615 -9 -645 -17 -138
-46 -183 -120 -186 -26 -1 -61 2 -79 6 -18 5 -50 11 -72 14 -41 6 -87 13 -140
21 -16 3 -55 7 -85 10 -30 4 -68 8 -85 11 -16 3 -50 7 -75 9 -78 7 -237 24
-295 31 -22 3 -62 7 -90 10 -27 2 -63 6 -80 8 -33 5 -169 16 -255 22 -150 11
-409 13 -441 4 -42 -12 -70 -35 -85 -70 -14 -33 -15 -203 -2 -243 18 -52 74
-89 150 -101 99 -15 131 -18 213 -21 50 -2 90 -4 90 -5 0 -2 473 -3 1051 -4
l1052 -3 2 221 c0 122 1 228 1 236 -4 179 -1 572 4 580 3 5 3 10 -2 10 -6 0
-8 181 -3 345 0 17 0 95 -2 175 l-3 145 -30 2 c-143 7 -335 14 -355 13 -14 -1
-29 -2 -35 -1 -140 7 -215 8 -216 3z"/>
<path d="M4095 7853 c-39 -11 -63 -35 -83 -81 -42 -98 -56 -245 -78 -837 -3
-82 -7 -195 -9 -250 -2 -55 -7 -179 -10 -275 -3 -96 -8 -181 -10 -187 -3 -9 7
-13 28 -13 18 0 289 -2 602 -4 314 -2 633 -7 710 -10 133 -6 280 -14 280 -16
0 0 45 -3 100 -6 55 -3 116 -7 135 -9 19 -2 67 -6 105 -9 76 -7 156 -15 195
-21 14 -2 56 -6 93 -10 37 -3 78 -8 90 -11 12 -2 63 -6 112 -9 50 -2 92 -5 95
-6 42 -11 155 22 169 50 9 18 7 102 -4 171 -4 25 -8 61 -10 81 -8 89 -65 134
-187 146 -134 14 -522 4 -918 -22 -47 -3 -130 -8 -185 -11 -55 -2 -127 -7
-160 -9 -75 -5 -295 -17 -355 -19 -64 -3 -130 11 -153 32 -37 33 -62 112 -73
237 -2 22 -6 128 -9 235 -3 107 -8 265 -10 350 -7 259 -16 342 -45 408 -24 53
-35 64 -88 85 -43 17 -285 32 -327 20z"/>
<path d="M3960 3088 l0 -2820 108 6 c59 3 139 8 177 11 39 2 108 7 155 10 214
13 260 17 275 27 6 4 17 3 25 -2 7 -4 23 -5 34 0 12 4 45 10 75 14 65 8 128
35 156 66 16 18 20 36 20 94 -1 39 -4 96 -8 126 -5 30 -9 70 -10 88 -1 17 -4
32 -7 32 -3 0 -5 17 -6 38 -1 20 -4 64 -8 97 -3 33 -8 83 -11 110 -3 28 -8 73
-10 100 -3 28 -8 77 -11 110 -3 33 -6 76 -8 95 -2 19 -7 67 -10 105 -6 68 -13
149 -21 230 -2 22 -6 74 -9 115 -3 41 -6 75 -6 75 -1 0 -3 23 -5 50 -2 28 -7
79 -10 115 -4 36 -8 88 -10 115 -2 28 -6 75 -9 105 -2 30 -7 91 -11 135 -3 44
-8 105 -11 135 -3 30 -7 82 -9 115 -2 33 -7 92 -10 130 -11 126 -15 189 -20
270 -5 75 -7 103 -20 260 -3 33 -7 98 -10 145 -3 47 -8 110 -10 140 -13 171
-16 383 -5 434 15 73 54 109 111 102 33 -4 92 -29 109 -46 3 -3 21 -17 40 -32
69 -52 149 -136 252 -268 110 -139 113 -143 334 -480 261 -399 377 -516 538
-550 54 -11 292 -20 301 -11 2 2 23 5 47 7 24 2 54 6 68 9 14 3 39 8 57 11 17
3 39 14 47 23 14 15 12 23 -18 81 -18 36 -47 90 -65 120 -50 82 -231 352 -252
376 -10 11 -19 26 -19 32 0 7 -3 12 -7 12 -5 0 -19 17 -33 37 -14 21 -30 45
-37 53 -15 19 -181 234 -208 269 -34 45 -169 181 -180 181 -5 0 -24 14 -42 29
-159 146 -92 334 135 382 31 6 82 23 112 38 69 33 197 158 240 235 18 31 36
59 41 62 5 3 9 14 9 25 0 10 5 19 10 19 6 0 10 8 10 18 0 9 7 29 14 44 8 15
24 67 36 114 29 116 29 233 1 343 -80 306 -168 438 -355 525 -32 15 -65 29
-75 31 -9 2 -41 11 -71 20 -30 9 -67 18 -82 20 -15 2 -53 8 -85 14 -86 15
-206 28 -323 36 -172 10 -450 24 -620 30 -159 6 -300 12 -500 21 -80 3 -180 7
-222 9 l-78 3 0 -2820z m1290 2261 c269 -3 378 -32 424 -113 10 -17 18 -33 18
-36 0 -3 3 -9 8 -15 8 -10 32 -85 36 -115 2 -8 5 -26 8 -40 3 -14 9 -45 12
-70 3 -25 8 -48 11 -52 2 -5 -1 -8 -8 -8 -10 0 -10 -3 -2 -11 22 -22 -17 -122
-66 -168 -24 -23 -110 -67 -148 -76 -10 -3 -36 -9 -58 -14 -22 -5 -56 -12 -75
-15 -19 -3 -44 -7 -55 -10 -11 -2 -51 -7 -90 -11 -38 -4 -79 -9 -89 -11 -11
-2 -70 -6 -130 -10 -61 -3 -136 -8 -166 -10 -30 -2 -87 -6 -127 -8 -39 -2 -76
-7 -82 -10 -14 -9 -24 59 -36 249 -3 44 -7 105 -9 135 -8 91 -18 212 -21 260
-2 25 -6 69 -9 98 -6 46 -5 53 13 60 18 6 190 7 641 1z"/>
<path d="M1578 5885 c-2 -3 -72 -7 -154 -9 -159 -5 -236 -16 -284 -41 -50 -26
-64 -58 -68 -159 -4 -79 -1 -98 18 -138 22 -49 46 -64 120 -76 51 -8 275 -7
430 2 74 5 155 10 180 11 46 3 193 13 290 21 30 2 93 7 140 10 47 3 101 8 120
9 19 2 73 6 120 9 47 3 108 8 135 11 67 5 194 15 280 21 39 2 81 5 95 7 23 2
25 -1 24 -43 -1 -40 -9 -187 -19 -335 -2 -27 -7 -95 -10 -150 -4 -55 -8 -122
-10 -150 -2 -27 -6 -95 -10 -150 -3 -55 -8 -129 -11 -165 -6 -84 -11 -153 -18
-265 -4 -49 -9 -121 -11 -160 -3 -38 -7 -108 -10 -155 -3 -47 -7 -114 -10
-150 -2 -36 -7 -119 -10 -185 -3 -66 -7 -151 -10 -190 -3 -38 -8 -122 -11
-185 -2 -63 -6 -149 -9 -190 -6 -124 -15 -308 -21 -435 -5 -125 -9 -204 -19
-465 -3 -85 -8 -195 -10 -245 -3 -49 -7 -153 -10 -230 -4 -77 -8 -169 -11
-205 -3 -36 -4 -76 -3 -90 1 -30 1 -27 -5 -125 -2 -44 -8 -145 -11 -225 -11
-259 -14 -313 -21 -450 -3 -74 -7 -171 -8 -215 l-1 -80 30 -1 c65 -4 310 -6
355 -5 8 1 62 1 120 0 58 0 112 0 120 0 8 0 70 1 136 2 l122 1 0 68 c0 38 3
74 7 80 3 5 3 10 -2 10 -6 0 -8 183 -3 345 0 17 0 157 0 312 -1 155 1 287 5
293 3 5 3 10 -2 10 -9 0 -8 283 1 306 3 8 2 14 -2 14 -6 0 -7 191 -2 345 0 17
0 157 0 312 -1 155 1 287 5 293 3 5 3 10 -2 10 -6 0 -8 183 -3 345 0 17 0 157
0 312 -1 155 1 287 5 293 3 5 3 10 -2 10 -6 0 -8 183 -3 345 0 17 0 157 0 312
-1 155 1 287 5 293 3 5 3 10 -2 10 -6 0 -8 182 -3 345 1 36 2 644 1 665 -1 8
-1 52 0 98 0 72 -2 82 -18 83 -39 2 -315 10 -848 24 -110 2 -299 7 -420 10
-121 4 -318 8 -437 10 -119 1 -221 5 -225 8 -5 3 -25 2 -45 -2 -19 -5 -42 -5
-50 0 -8 5 -17 6 -20 4z"/>
</g>
</svg>
