<?xml version="1.0" standalone="no"?>
<!DOCTYPE svg PUBLIC "-//W3C//DTD SVG 20010904//EN"
 "http://www.w3.org/TR/2001/REC-SVG-20010904/DTD/svg10.dtd">
<svg version="1.0" xmlns="http://www.w3.org/2000/svg"
 width="736.000000pt" height="736.000000pt" viewBox="0 0 736.000000 736.000000"
 preserveAspectRatio="xMidYMid meet">
<metadata>
Created by potrace 1.14, written by Peter Selinger 2001-2017
</metadata>
<g transform="translate(0.000000,736.000000) scale(0.100000,-0.100000)"
fill="#000000" stroke="none">
<path d="M3045 7311 c3 -5 -5 -11 -17 -13 -18 -2 -23 -9 -22 -30 2 -46 4 -49
17 -43 6 4 3 -1 -7 -9 -20 -16 -20 -16 0 -17 15 0 16 -2 4 -7 -11 -5 -15 -23
-14 -72 2 -98 3 -102 17 -95 6 4 5 1 -3 -7 -9 -7 -15 -19 -14 -25 1 -7 2 -31
3 -54 1 -28 5 -38 14 -34 6 4 3 -1 -7 -9 -20 -16 -20 -16 0 -17 15 0 16 -2 4
-7 -11 -5 -15 -23 -14 -72 3 -136 4 -141 17 -135 6 4 4 0 -6 -8 -15 -13 -16
-16 -2 -27 14 -12 14 -15 -2 -33 -11 -12 -14 -21 -8 -24 6 -2 9 -19 7 -40 -4
-28 -2 -34 9 -29 8 4 5 0 -5 -8 -20 -16 -20 -16 0 -17 15 0 16 -2 4 -7 -8 -4
-14 -14 -14 -22 1 -8 2 -23 3 -33 1 -11 6 -16 14 -12 6 4 5 1 -3 -7 -17 -14
-20 -62 -6 -75 5 -4 6 -3 2 4 -3 6 -2 14 3 17 12 8 7 -24 -5 -32 -5 -4 -9 -13
-8 -19 1 -7 2 -27 3 -44 1 -21 5 -28 14 -24 6 4 5 1 -3 -7 -9 -7 -15 -19 -14
-25 1 -7 2 -31 3 -54 1 -28 5 -38 14 -34 6 4 4 0 -6 -8 -13 -11 -15 -17 -7
-22 9 -6 9 -10 -1 -16 -12 -7 -12 -9 0 -9 11 0 11 -3 1 -15 -11 -13 -10 -18 6
-31 10 -9 13 -12 5 -8 -11 5 -13 3 -8 -10 4 -9 3 -15 -2 -12 -4 3 -17 -1 -27
-9 -10 -8 -23 -14 -29 -15 -5 0 -3 5 5 10 17 11 20 10 -60 13 -33 1 -44 -3
-42 -13 2 -10 0 -11 -11 -2 -10 9 -17 9 -27 -1 -12 -10 -12 -9 -1 5 7 10 18
15 25 11 6 -3 8 -2 3 2 -10 11 -48 14 -41 3 3 -4 0 -8 -5 -8 -6 0 -11 4 -11 9
0 6 -9 9 -21 8 -19 -1 -19 -2 -3 -14 10 -7 13 -13 7 -13 -7 0 -18 6 -25 13 -7
8 -19 12 -27 9 -8 -3 -11 0 -8 5 7 11 -74 10 -94 -2 -11 -7 -12 -6 -2 6 11 13
9 15 -7 14 -11 -1 -23 -5 -27 -10 -5 -4 -1 -4 7 0 13 8 13 7 1 -8 -14 -18 -22
-22 -20 -9 3 18 -2 32 -12 32 -5 0 -7 -6 -3 -12 5 -8 0 -7 -11 2 -17 13 -18
13 -13 -1 4 -9 1 -16 -7 -16 -7 0 -11 6 -8 14 4 9 0 11 -13 6 -13 -5 -15 -3
-9 8 7 11 6 12 -6 2 -9 -7 -20 -8 -28 -3 -8 4 -25 6 -39 4 -13 -3 -31 1 -40 8
-14 11 -15 10 -9 -6 6 -15 5 -17 -6 -8 -8 7 -17 9 -20 5 -4 -3 -7 -1 -7 6 0
10 -6 9 -25 -3 -18 -12 -23 -13 -19 -2 4 10 -2 12 -23 9 -18 -3 -24 -1 -15 4
8 6 -10 9 -47 9 -33 -1 -57 -5 -54 -10 4 -5 1 -6 -5 -2 -5 3 -13 0 -16 -6 -3
-7 -4 -4 -1 8 4 14 0 21 -10 21 -9 0 -14 -6 -11 -13 3 -8 0 -11 -10 -7 -7 3
-14 9 -14 14 0 5 -5 9 -11 9 -5 0 -8 -4 -4 -9 3 -5 1 -13 -5 -16 -6 -4 -10 -3
-9 2 3 20 -2 27 -11 13 -6 -10 -10 -11 -10 -2 0 6 -5 12 -11 12 -5 0 -7 -4 -4
-10 3 -6 -1 -7 -9 -4 -9 3 -14 10 -11 14 3 5 -8 5 -25 0 -21 -6 -30 -5 -31 3
0 7 -4 3 -9 -8 -5 -11 -9 -14 -9 -7 -1 8 -6 10 -13 6 -10 -6 -10 -5 -1 7 10
12 6 14 -25 14 -20 0 -43 -4 -49 -8 -8 -5 -13 -3 -13 3 0 7 -6 10 -14 7 -7 -3
-19 0 -26 6 -7 7 -10 7 -7 2 3 -6 -2 -16 -12 -22 -14 -9 -18 -8 -18 3 0 7 5
10 11 7 6 -3 8 -2 3 2 -12 14 -48 13 -43 -1 5 -12 -7 -12 -36 0 -9 4 -22 5
-27 1 -7 -4 -9 1 -5 12 5 16 4 16 -10 -1 -14 -17 -16 -17 -16 -3 0 19 -39 15
-52 -5 -5 -9 -8 -5 -9 12 0 17 -3 20 -7 10 -4 -8 -13 -16 -21 -18 -11 -2 -12
0 -4 10 9 10 3 13 -30 13 -23 1 -46 3 -52 5 -5 3 -10 1 -10 -5 0 -5 6 -9 15
-7 12 2 13 1 1 -7 -17 -11 -41 -4 -41 13 0 6 -4 5 -9 -3 -6 -9 -5 -23 1 -35
10 -18 9 -19 -3 -9 -12 10 -15 8 -15 -7 0 -10 4 -16 8 -14 12 8 9 -11 -4 -24
-9 -9 -9 -12 0 -12 7 0 12 -5 12 -11 0 -5 -6 -7 -12 -4 -7 4 -4 -1 6 -9 15
-12 16 -16 5 -16 -12 0 -15 -17 -14 -87 0 -49 4 -94 8 -100 5 -7 4 -13 0 -13
-5 0 -9 -9 -9 -20 0 -11 5 -20 10 -20 6 0 5 -5 -2 -12 -7 -7 -12 -17 -12 -22
0 -6 4 -5 9 2 6 11 9 9 13 -6 4 -12 1 -19 -6 -18 -6 2 -8 1 -3 -1 4 -3 5 -9 2
-14 -4 -5 2 -6 11 -2 10 3 15 2 12 -3 -4 -5 18 -9 48 -9 41 0 54 4 54 15 1 12
2 12 10 -2 8 -13 17 -15 39 -8 16 4 32 6 34 3 11 -11 77 -10 77 0 0 7 5 5 10
-3 8 -12 10 -12 10 -1 0 11 3 11 17 0 13 -11 17 -11 20 -1 3 6 9 12 14 12 6 0
8 -4 5 -8 -2 -4 6 -8 20 -8 13 0 24 4 24 10 0 6 4 6 11 -1 7 -7 21 -8 40 -3
17 5 29 5 29 -1 0 -5 4 -9 10 -9 5 0 7 8 3 18 -5 14 -3 13 10 -3 l16 -20 1 20
c0 15 2 17 9 6 9 -14 111 -24 111 -10 0 3 12 5 28 2 78 -10 92 -10 92 0 0 7 5
5 10 -3 8 -12 10 -12 10 -1 0 11 3 11 16 0 9 -7 18 -9 22 -3 8 10 62 13 62 3
0 -8 138 -2 151 7 5 3 9 0 9 -5 0 -6 4 -11 10 -11 5 0 7 8 3 18 -5 14 -3 13
10 -3 l16 -20 1 20 c1 18 2 18 10 3 8 -13 17 -15 39 -8 16 4 32 6 34 3 11 -11
77 -10 77 0 0 7 5 5 10 -3 8 -12 10 -12 10 -1 0 11 3 11 17 0 13 -11 17 -11
20 -1 3 6 9 12 14 12 6 0 8 -4 5 -8 -2 -4 6 -8 20 -8 13 0 24 4 24 10 0 6 4 6
11 -1 7 -7 21 -8 40 -3 17 5 29 5 29 -1 0 -5 4 -9 10 -9 5 0 7 8 3 18 -5 14
-3 13 10 -3 l16 -20 1 20 c0 15 2 17 9 6 9 -14 111 -24 111 -10 0 3 12 5 28 2
78 -10 92 -10 92 0 0 7 5 5 10 -3 8 -12 10 -12 10 -1 0 11 3 11 16 0 13 -10
17 -10 24 0 4 8 13 10 19 7 21 -13 81 -15 81 -3 0 7 5 5 10 -3 8 -12 10 -12
10 -1 0 11 3 11 17 0 13 -11 17 -11 20 -1 3 6 8 10 12 8 4 -3 20 -7 35 -10 21
-4 26 -2 22 10 -3 7 -1 14 4 14 6 0 10 -8 10 -17 0 -15 2 -16 10 -3 5 8 10 10
10 4 0 -6 7 -11 15 -11 8 0 12 4 10 8 -3 3 4 9 16 12 15 4 17 2 10 -6 -7 -9
-2 -12 19 -12 26 -1 27 1 18 20 -11 19 -10 20 10 2 15 -14 22 -15 28 -6 4 7 3
10 -3 6 -6 -4 -13 0 -17 8 -3 8 0 17 6 21 7 5 8 2 3 -6 -5 -9 -4 -11 4 -6 9 6
8 14 -3 32 -15 22 -15 23 1 17 15 -6 16 -4 5 9 -10 13 -10 17 0 21 9 4 9 6 1
6 -8 1 -9 10 -3 31 7 23 5 32 -8 40 -15 8 -15 9 3 10 17 0 17 2 5 10 -12 8
-12 10 -1 10 11 0 11 3 0 17 -8 10 -9 14 -2 10 9 -6 10 0 3 22 -6 21 -5 31 3
34 9 3 8 8 -2 20 -11 14 -11 17 0 17 11 0 11 2 -1 10 -8 5 -10 10 -5 10 15 0
10 61 -6 71 -11 7 -10 9 6 9 17 0 17 2 5 10 -12 8 -12 10 -1 10 11 0 11 3 0
17 -8 10 -9 14 -2 10 9 -6 10 0 3 22 -6 21 -5 31 3 34 9 3 8 8 -2 20 -11 14
-11 17 0 17 11 0 11 2 -1 10 -8 5 -10 10 -5 10 15 0 10 61 -6 71 -11 7 -10 9
6 9 l20 1 -20 16 c-16 13 -17 15 -2 10 9 -4 17 -2 17 3 0 6 -3 10 -7 10 -5 0
-8 18 -8 40 0 22 3 40 6 40 8 0 4 54 -5 69 -4 6 -3 11 2 11 11 0 9 51 -2 69
-4 6 -3 11 2 11 11 0 9 51 -2 69 -4 6 -3 11 1 11 15 0 7 101 -8 111 -11 7 -9
9 6 9 17 0 17 2 5 10 -12 8 -12 10 -1 10 11 0 11 3 0 17 -8 10 -9 14 -2 10 9
-6 10 0 3 22 -6 21 -5 31 3 34 9 3 8 8 -2 20 -11 14 -11 17 0 17 11 0 11 2 -1
10 -8 5 -10 10 -5 10 15 0 10 61 -6 71 -12 7 -12 9 1 9 13 0 15 20 14 127 -2
119 -3 127 -23 135 -27 10 -27 18 0 13 12 -3 19 -1 15 2 -4 4 -18 9 -32 11
-18 2 -24 -1 -18 -9 5 -8 3 -9 -7 -4 -20 13 -72 14 -88 1 -11 -8 -13 -8 -7 2
4 7 1 12 -9 12 -10 0 -13 -5 -9 -12 5 -7 3 -8 -6 -3 -17 11 -82 16 -76 6 3 -4
-1 -8 -9 -8 -8 0 -12 4 -10 7 3 4 -6 8 -20 8 -14 0 -22 -4 -19 -9 3 -5 -5 -5
-18 0 -33 12 -36 12 -55 -1 -13 -10 -15 -10 -9 0 4 7 1 12 -9 12 -9 0 -13 -5
-9 -11 4 -8 0 -8 -15 0 -16 9 -21 9 -21 -1 0 -9 -3 -9 -10 2 -9 13 -11 13 -20
0 -6 -10 -10 -11 -10 -2 0 6 -9 12 -21 12 -11 0 -18 -4 -14 -9z m-15 -50 c0
-6 -4 -12 -8 -15 -5 -3 -9 1 -9 9 0 8 4 15 9 15 4 0 8 -4 8 -9z m534 -67 c3
-8 2 -12 -4 -9 -6 3 -10 10 -10 16 0 14 7 11 14 -7z m6 -28 c0 -3 -4 -8 -10
-11 -5 -3 -10 -1 -10 4 0 6 5 11 10 11 6 0 10 -2 10 -4z m-540 -107 c0 -5 -4
-9 -8 -9 -5 0 -9 7 -9 15 0 8 4 12 9 9 4 -3 8 -9 8 -15z m0 -320 c0 -5 -4 -9
-8 -9 -5 0 -9 7 -9 15 0 8 4 12 9 9 4 -3 8 -9 8 -15z m-1215 -689 c-3 -5 -12
-10 -18 -10 -7 0 -6 4 3 10 19 12 23 12 15 0z m81 3 c-2 -3 -8 -5 -13 -5 -4 0
-17 -4 -28 -10 -18 -8 -18 -8 -3 5 15 12 55 21 44 10z m344 -28 c0 -2 -6 -8
-13 -14 -10 -8 -14 -7 -14 2 0 8 6 14 14 14 7 0 13 -1 13 -2z m30 -25 c0 -5
-2 -10 -4 -10 -3 0 -8 5 -11 10 -3 6 -1 10 4 10 6 0 11 -4 11 -10z m400 -22
c0 -4 -4 -8 -9 -8 -6 0 -12 4 -15 8 -3 5 1 9 9 9 8 0 15 -4 15 -9z m-1250 -58
c0 -5 -2 -10 -4 -10 -3 0 -8 5 -11 10 -3 6 -1 10 4 10 6 0 11 -4 11 -10z m390
-264 c0 -2 -8 -10 -17 -17 -16 -13 -17 -12 -4 4 13 16 21 21 21 13z m960 0 c0
-2 -8 -10 -17 -17 -16 -13 -17 -12 -4 4 13 16 21 21 21 13z m-1120 -12 c0 -8
-19 -13 -24 -6 -3 5 1 9 9 9 8 0 15 -2 15 -3z m480 0 c0 -8 -19 -13 -24 -6 -3
5 1 9 9 9 8 0 15 -2 15 -3z m255 -3 c-9 -8 -36 -10 -30 -2 2 4 11 8 20 8 8 0
13 -3 10 -6z m225 3 c0 -8 -19 -13 -24 -6 -3 5 1 9 9 9 8 0 15 -2 15 -3z m480
0 c0 -8 -19 -13 -24 -6 -3 5 1 9 9 9 8 0 15 -2 15 -3z m160 0 c0 -8 -19 -13
-24 -6 -3 5 1 9 9 9 8 0 15 -2 15 -3z m145 -4 c3 -6 -1 -7 -9 -4 -18 7 -21 14
-7 14 6 0 13 -4 16 -10z"/>
<path d="M3762 7303 c-8 -8 -11 -20 -8 -28 3 -8 0 -17 -6 -21 -7 -4 -8 -3 -4
4 4 7 3 12 -2 12 -11 0 -10 -75 1 -86 11 -12 8 -26 -4 -18 -7 4 -10 1 -7 -7 3
-8 10 -13 16 -12 5 1 8 -7 5 -18 -4 -14 -8 -17 -13 -9 -4 7 -7 -5 -6 -26 0
-22 5 -42 10 -45 5 -4 5 -13 1 -20 -12 -19 -15 -78 -4 -85 5 -3 9 -10 9 -15 0
-6 -5 -7 -11 -3 -7 4 -10 1 -7 -7 3 -8 10 -13 16 -12 6 2 9 -4 6 -12 -4 -8
-10 -12 -15 -9 -5 3 -9 0 -9 -5 0 -6 6 -11 13 -11 9 0 8 -3 -2 -9 -11 -7 -11
-9 0 -13 8 -3 9 -9 4 -18 -13 -20 -15 -60 -4 -60 5 0 9 -5 9 -11 0 -5 -4 -8
-8 -5 -10 6 -10 -40 1 -50 11 -12 8 -26 -4 -18 -7 4 -10 1 -7 -7 3 -8 10 -13
16 -12 5 1 8 -7 5 -18 -4 -14 -8 -17 -13 -9 -4 7 -7 -5 -6 -26 0 -22 5 -42 10
-45 5 -4 5 -13 1 -20 -12 -19 -15 -78 -4 -85 5 -3 9 -10 9 -15 0 -6 -5 -7 -11
-3 -7 4 -10 1 -7 -7 3 -8 10 -13 16 -12 6 2 9 -4 6 -12 -4 -8 -10 -12 -15 -9
-5 3 -9 1 -9 -5 0 -5 6 -12 13 -14 8 -4 7 -6 -3 -6 -12 -1 -13 -3 -1 -10 8 -5
10 -14 5 -22 -12 -19 -14 -59 -3 -59 5 0 9 -5 9 -11 0 -5 -4 -8 -8 -5 -10 6
-10 -40 1 -50 11 -12 8 -26 -4 -18 -7 4 -10 1 -7 -7 3 -8 10 -13 16 -12 5 1 8
-7 5 -18 -4 -14 -8 -17 -13 -9 -4 7 -7 -5 -6 -26 0 -22 5 -42 10 -45 5 -4 5
-13 1 -20 -12 -19 -15 -78 -4 -85 5 -3 9 -10 9 -15 0 -6 -5 -7 -11 -3 -7 4
-10 1 -7 -7 3 -8 10 -13 16 -12 6 2 9 -4 6 -12 -4 -8 -10 -12 -15 -9 -5 3 -9
0 -9 -5 0 -6 6 -11 13 -11 9 0 8 -3 -2 -9 -11 -7 -11 -9 0 -13 8 -3 9 -9 4
-18 -13 -20 -15 -60 -4 -60 5 0 9 -5 9 -11 0 -5 -4 -8 -8 -5 -10 6 -10 -40 1
-50 11 -11 9 -26 -3 -19 -5 3 -10 2 -10 -3 0 -17 13 -22 28 -9 13 11 14 9 2
-10 -8 -12 -17 -20 -20 -18 -4 2 -7 -2 -7 -10 0 -8 4 -12 9 -9 4 3 8 -2 8 -11
0 -10 -5 -13 -12 -9 -7 4 -10 3 -5 -1 15 -17 157 -27 157 -11 0 6 4 6 11 -1 7
-7 21 -8 40 -3 17 5 29 5 29 -1 0 -5 4 -9 10 -9 5 0 7 8 3 18 -5 14 -3 13 10
-3 l16 -20 1 20 c0 15 2 17 9 6 10 -15 111 -23 111 -8 0 4 5 5 11 1 19 -11 69
-12 69 -1 0 8 3 8 11 0 7 -7 21 -8 40 -3 17 5 29 5 29 -1 0 -5 4 -9 10 -9 5 0
7 8 3 18 -5 14 -3 13 10 -3 l16 -20 1 20 c0 15 2 17 9 6 8 -13 111 -24 111
-11 0 3 18 5 40 5 22 0 40 -3 40 -6 0 -8 138 -1 151 7 5 3 9 0 9 -5 0 -6 4
-11 10 -11 5 0 7 8 3 18 -5 14 -3 13 10 -3 l16 -20 1 20 c1 18 2 18 10 3 8
-13 17 -15 39 -8 16 4 32 6 34 3 11 -11 77 -10 77 0 0 7 5 5 10 -3 8 -12 10
-12 10 -1 0 11 3 11 17 0 13 -11 17 -11 20 -1 3 6 9 12 14 12 6 0 8 -4 5 -8
-2 -4 6 -8 20 -8 13 0 24 4 24 10 0 6 4 6 11 -1 7 -7 21 -8 40 -3 17 5 29 5
29 -1 0 -5 4 -9 10 -9 5 0 7 8 3 18 -5 14 -3 13 10 -3 l16 -20 1 20 c0 15 2
17 9 6 9 -14 111 -24 111 -10 0 3 12 5 28 2 78 -10 92 -10 92 0 0 7 5 5 10 -3
8 -12 10 -12 10 -1 0 11 3 11 16 0 9 -7 18 -9 22 -3 8 10 62 13 62 3 0 -8 138
-2 151 7 5 3 9 0 9 -5 0 -6 4 -11 10 -11 5 0 7 8 3 18 -5 14 -3 13 10 -3 l16
-20 1 20 c0 15 2 17 9 6 10 -15 91 -22 91 -8 0 5 -8 6 -17 2 -14 -5 -15 -4 -6
6 10 10 16 9 29 -2 18 -14 86 -21 78 -7 -3 4 2 8 10 8 9 0 16 5 16 12 0 6 3 8
6 5 4 -4 1 -13 -5 -21 -10 -12 -9 -14 8 -9 12 3 21 12 21 19 0 8 4 14 10 14 5
0 7 -8 4 -17 -5 -15 -4 -15 4 -3 7 9 8 18 1 26 -7 8 -6 14 1 19 5 3 10 12 10
18 0 8 -3 8 -8 2 -4 -5 -13 -11 -21 -13 -12 -3 -12 0 -2 12 7 8 9 21 5 27 -4
8 -3 9 4 5 7 -4 12 -2 12 3 0 6 -6 11 -12 11 -9 0 -8 4 2 10 10 6 11 10 3 10
-7 0 -13 5 -13 11 0 5 6 7 13 3 6 -4 4 2 -6 13 -14 16 -15 23 -6 29 8 4 10 3
5 -4 -4 -7 -3 -12 3 -12 5 0 9 9 8 20 -1 15 -7 19 -22 15 -11 -3 -14 -2 -7 1
6 3 12 10 12 15 0 6 -5 7 -12 3 -7 -4 -8 -3 -4 5 4 6 11 9 16 6 4 -3 11 2 14
11 3 8 2 13 -2 10 -4 -2 -14 -1 -22 5 -13 7 -12 9 2 9 21 0 32 16 17 26 -8 4
-9 3 -5 -4 5 -8 2 -10 -8 -6 -12 5 -13 9 -3 19 7 7 16 10 21 7 5 -3 5 1 0 9
-5 8 -9 30 -9 49 -1 19 -6 43 -12 54 -9 16 -11 17 -16 2 -5 -11 -3 -15 5 -10
7 5 8 3 3 -6 -6 -9 -4 -11 5 -5 9 5 11 4 6 -4 -10 -16 -39 7 -32 25 3 7 0 16
-6 20 -7 5 -8 2 -3 -5 5 -10 -2 -12 -29 -8 -31 4 -36 2 -31 -11 3 -9 3 -13 -1
-9 -4 4 -14 1 -22 -6 -12 -9 -14 -9 -9 0 5 7 -1 16 -13 23 -11 6 -20 7 -19 3
3 -20 -2 -27 -11 -13 -8 13 -10 13 -10 -2 0 -9 -4 -19 -9 -22 -5 -4 -7 4 -3
16 5 22 4 22 -14 7 -20 -16 -59 -15 -49 2 4 5 2 9 -3 9 -16 0 -22 -13 -11 -26
7 -9 6 -12 -5 -10 -9 1 -19 6 -23 11 -4 4 -2 5 6 0 9 -5 12 -4 7 3 -4 6 -14 8
-23 5 -12 -5 -14 -3 -9 8 4 8 -2 3 -14 -11 -12 -14 -19 -19 -15 -12 5 10 -5
13 -44 11 -42 -2 -51 -6 -46 -18 3 -8 3 -12 -1 -8 -4 4 -14 1 -23 -5 -13 -10
-14 -10 -3 2 18 21 15 26 -18 26 -22 0 -29 -4 -25 -13 2 -8 1 -12 -4 -8 -5 3
-11 2 -14 -2 -2 -5 -2 -3 -1 4 2 6 -4 14 -12 17 -10 4 -12 2 -8 -6 5 -8 -2 -9
-24 -5 -20 4 -32 2 -36 -6 -3 -9 -5 -8 -5 1 -1 10 -4 10 -16 -2 -9 -8 -25 -13
-38 -9 -34 8 -107 9 -107 2 0 -13 -29 -18 -36 -7 -4 6 -3 8 4 4 6 -3 13 -2 16
3 4 5 -2 8 -11 6 -11 -1 -17 -10 -16 -21 1 -17 0 -17 -10 -3 -13 16 -120 22
-110 5 3 -4 -5 -5 -18 -1 -24 7 -24 7 -4 -9 l20 -16 -20 7 c-11 3 -24 9 -30
12 -17 9 -29 8 -60 -7 -29 -15 -29 -14 -15 4 14 17 14 18 -2 6 -9 -8 -21 -11
-27 -8 -5 3 -12 0 -14 -6 -3 -7 -6 -8 -6 -3 -1 7 -16 9 -36 7 -19 -2 -32 -8
-29 -13 3 -5 -2 -6 -10 -3 -9 3 -13 11 -9 17 3 6 1 7 -6 3 -6 -4 -9 -12 -6
-17 7 -11 -8 -12 -19 -2 -10 11 -76 11 -70 1 3 -5 9 -6 14 -3 5 3 12 0 16 -6
4 -8 3 -9 -4 -5 -7 4 -12 1 -12 -6 0 -9 -3 -10 -8 -2 -9 14 -81 23 -85 11 -2
-6 -24 -11 -50 -12 -43 -2 -46 -1 -35 14 11 14 11 14 -3 4 -9 -7 -20 -9 -24
-5 -5 4 -5 -2 -2 -13 7 -20 7 -20 -8 -1 -13 18 -20 15 -16 -6 0 -5 -4 -8 -9
-8 -6 0 -10 8 -11 18 0 10 -3 12 -6 5 -3 -9 -10 -10 -22 -3 -10 5 -21 7 -24 4
-3 -3 -15 -3 -28 1 -17 6 -19 9 -8 16 12 7 11 9 -1 9 -13 0 -13 1 0 11 12 8
10 10 -10 5 l-25 -5 24 18 c23 18 23 18 5 47 -17 26 -17 27 -1 15 10 -8 17 -9
17 -3 0 6 -4 14 -10 17 -5 3 -10 11 -10 16 0 6 6 7 13 3 7 -5 6 0 -3 11 -9 11
-10 16 -2 11 6 -4 12 -2 12 3 0 6 -4 11 -10 11 -5 0 -10 5 -10 11 0 5 4 8 8 5
10 -6 10 40 0 50 -12 12 -9 26 3 18 7 -4 10 -1 7 7 -3 8 -13 13 -23 11 -14 -3
-15 -1 -4 11 8 8 17 13 22 10 4 -2 7 1 7 6 0 6 -6 11 -12 11 -9 0 -8 4 2 10
10 6 11 10 3 10 -7 0 -13 5 -13 11 0 5 4 8 8 5 13 -8 8 37 -7 64 -12 22 -12
23 0 13 12 -10 14 4 14 88 1 54 -3 99 -8 99 -4 0 -5 6 0 13 12 19 14 45 3 52
-6 3 -10 11 -10 16 0 6 6 7 13 3 7 -5 6 0 -3 11 -9 11 -10 16 -2 11 6 -4 12
-2 12 3 0 6 -4 11 -10 11 -5 0 -10 5 -10 11 0 5 4 8 8 5 10 -6 10 40 0 50 -13
12 -9 26 5 18 7 -5 6 0 -3 11 -9 11 -10 16 -2 11 6 -4 12 -2 12 3 0 6 -5 11
-11 11 -5 0 -7 6 -3 12 11 17 12 208 2 214 -4 3 -8 10 -8 15 0 6 6 7 13 3 7
-5 6 0 -3 11 -9 11 -10 16 -2 11 6 -4 12 -2 12 3 0 6 -4 11 -10 11 -5 0 -10 5
-10 11 0 5 4 8 8 5 10 -6 10 40 0 50 -12 12 -9 26 3 18 7 -4 10 -1 7 7 -3 8
-10 14 -15 14 -6 0 -15 4 -20 9 -5 5 -3 6 5 2 8 -5 12 -1 12 11 0 15 2 16 10
3 8 -12 10 -11 7 5 -1 11 -5 25 -8 30 -4 6 -5 18 -4 28 3 14 0 15 -9 8 -7 -6
-16 -8 -20 -3 -4 4 -62 7 -129 7 -96 0 -125 -3 -135 -15 -8 -8 -11 -9 -7 -2 3
6 0 12 -7 13 -7 0 -23 2 -35 3 -15 2 -23 -3 -23 -13 0 -14 -2 -14 -10 -1 -5 8
-25 15 -44 15 -19 1 -33 -2 -30 -7 6 -10 -10 -11 -20 -1 -12 12 -36 12 -36 0
0 -9 -2 -9 -8 -1 -5 9 -11 8 -20 -3z m142 -2 c-8 -8 -34 -10 -38 -2 -3 4 6 7
19 7 14 0 22 -2 19 -5z m170 1 c3 -5 -1 -9 -9 -9 -8 0 -12 4 -9 9 3 4 7 8 9 8
2 0 6 -4 9 -8z m210 -13 c-3 -6 0 -15 7 -20 9 -6 10 -9 2 -9 -15 0 -26 17 -18
30 3 6 8 10 11 10 3 0 2 -5 -2 -11z m-523 -72 c-6 -8 -7 -18 -3 -22 4 -5 1 -5
-6 -1 -10 6 -10 11 -1 22 6 8 14 14 16 14 3 0 0 -6 -6 -13z m534 -56 c3 -5 2
-12 -3 -15 -5 -3 -9 1 -9 9 0 17 3 19 12 6z m-1 -127 c3 -8 2 -12 -4 -9 -6 3
-10 10 -10 16 0 14 7 11 14 -7z m6 -34 c0 -5 -5 -10 -11 -10 -5 0 -7 5 -4 10
3 6 8 10 11 10 2 0 4 -4 4 -10z m-539 -24 c-6 -7 -7 -17 -3 -21 4 -5 1 -5 -6
-1 -9 6 -10 11 -3 20 6 7 7 17 3 21 -4 5 -1 5 6 1 9 -6 10 -11 3 -20z m534
-15 c3 -5 2 -12 -3 -15 -5 -3 -9 1 -9 9 0 17 3 19 12 6z m0 -200 c3 -5 2 -12
-3 -15 -5 -3 -9 1 -9 9 0 17 3 19 12 6z m-534 -24 c-6 -8 -7 -18 -3 -22 4 -5
1 -5 -6 -1 -10 6 -10 11 -1 22 6 8 14 14 16 14 3 0 0 -6 -6 -13z m535 -177 c0
-12 -4 -16 -9 -11 -5 5 -6 14 -3 20 10 15 12 14 12 -9z m4 -40 c0 -5 -5 -10
-11 -10 -5 0 -7 5 -4 10 3 6 8 10 11 10 2 0 4 -4 4 -10z m-539 -24 c-6 -7 -7
-17 -3 -21 4 -5 1 -5 -6 -1 -9 6 -10 11 -3 20 6 7 7 17 3 21 -4 5 -1 5 6 1 9
-6 10 -11 3 -20z m534 -15 c3 -5 2 -12 -3 -15 -5 -3 -9 1 -9 9 0 17 3 19 12 6z
m0 -120 c3 -5 2 -12 -3 -15 -5 -3 -9 1 -9 9 0 17 3 19 12 6z m-534 -104 c-6
-8 -7 -18 -3 -22 4 -5 1 -5 -6 -1 -10 6 -10 11 -1 22 6 8 14 14 16 14 3 0 0
-6 -6 -13z m534 -56 c3 -5 2 -12 -3 -15 -5 -3 -9 1 -9 9 0 17 3 19 12 6z
m-534 -185 c-6 -7 -7 -17 -3 -21 4 -5 1 -5 -6 -1 -9 6 -10 11 -3 20 6 7 7 17
3 21 -4 5 -1 5 6 1 9 -6 10 -11 3 -20z m1769 20 c0 -3 -4 -8 -10 -11 -5 -3
-10 -1 -10 4 0 6 5 11 10 11 6 0 10 -2 10 -4z m400 -30 c0 -2 -7 -7 -16 -10
-8 -3 -12 -2 -9 4 6 10 25 14 25 6z m-1020 -16 c0 -5 -5 -10 -11 -10 -5 0 -7
5 -4 10 3 6 8 10 11 10 2 0 4 -4 4 -10z m-556 -51 c-3 -5 -10 -7 -15 -3 -5 3
-7 10 -3 15 3 5 10 7 15 3 5 -3 7 -10 3 -15z m-593 -162 c-6 -8 -7 -18 -3 -22
4 -5 1 -5 -6 -1 -10 6 -10 11 -1 22 6 8 14 14 16 14 3 0 0 -6 -6 -13z m129
-121 c0 -2 -8 -10 -17 -17 -16 -13 -17 -12 -4 4 13 16 21 21 21 13z m320 0 c0
-2 -8 -10 -17 -17 -16 -13 -17 -12 -4 4 13 16 21 21 21 13z m800 0 c0 -2 -8
-10 -17 -17 -16 -13 -17 -12 -4 4 13 16 21 21 21 13z m-1200 -10 c0 -3 -4 -8
-10 -11 -5 -3 -10 -1 -10 4 0 6 5 11 10 11 6 0 10 -2 10 -4z m815 -5 c-9 -8
-36 -10 -30 -2 2 4 11 8 20 8 8 0 13 -3 10 -6z m225 3 c0 -8 -19 -13 -24 -6
-3 5 1 9 9 9 8 0 15 -2 15 -3z m480 0 c0 -8 -19 -13 -24 -6 -3 5 1 9 9 9 8 0
15 -2 15 -3z m255 -3 c-9 -8 -36 -10 -30 -2 2 4 11 8 20 8 8 0 13 -3 10 -6z"/>
<path d="M5690 6059 c0 -5 5 -7 10 -4 6 3 10 8 10 11 0 2 -4 4 -10 4 -5 0 -10
-5 -10 -11z"/>
<path d="M5270 6029 c0 -5 5 -7 10 -4 6 3 10 8 10 11 0 2 -4 4 -10 4 -5 0 -10
-5 -10 -11z"/>
<path d="M4510 5968 c0 -4 4 -8 9 -8 6 0 12 4 15 8 3 5 -1 9 -9 9 -8 0 -15 -4
-15 -9z"/>
<path d="M3783 5434 c-7 -7 -11 -19 -10 -26 2 -7 2 -10 0 -5 -9 14 -25 7 -19
-9 4 -11 2 -15 -7 -11 -8 3 -14 -1 -14 -9 0 -7 4 -11 8 -9 4 3 9 -2 12 -10 4
-9 1 -12 -9 -8 -7 3 -14 0 -14 -6 0 -6 5 -11 10 -11 6 0 10 -5 10 -11 0 -5 -6
-7 -12 -3 -7 4 -5 -2 5 -13 9 -11 17 -24 17 -29 0 -5 -4 -2 -10 6 -5 8 -12 11
-16 7 -4 -4 -2 -13 4 -19 15 -15 16 -31 1 -22 -7 4 -10 1 -7 -7 3 -8 10 -13
16 -12 5 1 8 -7 5 -18 -4 -14 -8 -17 -13 -9 -4 7 -7 -5 -6 -26 0 -22 5 -42 10
-45 5 -4 5 -13 1 -20 -12 -19 -15 -78 -4 -85 5 -3 9 -10 9 -15 0 -6 -5 -7 -11
-3 -7 4 -10 1 -7 -7 3 -8 10 -13 16 -12 6 2 9 -4 6 -12 -4 -8 -10 -12 -15 -9
-5 3 -9 0 -9 -5 0 -6 6 -11 13 -11 9 0 8 -3 -2 -9 -11 -7 -11 -9 0 -13 8 -3 9
-9 4 -18 -13 -20 -15 -60 -4 -60 5 0 9 -5 9 -11 0 -5 -4 -8 -8 -5 -12 7 -10
-38 2 -46 7 -5 5 -8 -4 -8 -12 0 -13 -2 -1 -9 8 -5 10 -14 5 -22 -12 -19 -14
-59 -3 -59 5 0 9 -5 9 -11 0 -5 -4 -8 -8 -5 -10 6 -10 -40 1 -50 11 -12 8 -26
-4 -18 -7 4 -10 1 -7 -7 3 -8 10 -13 16 -12 5 1 8 -7 5 -18 -4 -14 -8 -17 -13
-9 -4 7 -7 -5 -6 -26 0 -22 5 -42 10 -45 5 -4 5 -13 1 -20 -12 -19 -15 -78 -4
-85 5 -3 9 -10 9 -15 0 -6 -5 -7 -11 -3 -7 4 -10 1 -7 -7 3 -8 10 -13 16 -12
6 2 9 -4 6 -12 -4 -8 -10 -12 -15 -9 -5 3 -9 0 -9 -5 0 -6 6 -11 13 -11 9 0 8
-3 -2 -9 -11 -7 -11 -9 0 -13 8 -3 9 -9 4 -18 -13 -20 -15 -60 -4 -60 5 0 9
-5 9 -11 0 -5 -4 -8 -8 -5 -10 6 -10 -40 1 -50 11 -12 8 -26 -4 -18 -7 4 -10
1 -7 -7 3 -8 10 -13 16 -12 5 1 8 -7 5 -18 -4 -14 -8 -17 -13 -9 -4 7 -7 -5
-6 -26 0 -22 5 -42 10 -45 5 -4 5 -13 1 -20 -12 -19 -15 -78 -4 -85 5 -3 9
-10 9 -15 0 -6 -5 -7 -11 -3 -7 4 -10 1 -7 -7 3 -8 10 -13 16 -12 6 2 9 -4 6
-12 -4 -8 -10 -12 -15 -9 -5 3 -9 0 -9 -5 0 -6 6 -11 13 -11 9 0 8 -3 -2 -9
-11 -7 -11 -9 0 -13 8 -3 9 -9 4 -18 -13 -20 -15 -60 -4 -60 5 0 9 -5 9 -11 0
-5 -4 -8 -8 -5 -10 6 -10 -40 1 -50 11 -12 8 -26 -4 -18 -7 4 -10 1 -7 -7 3
-8 10 -13 16 -12 5 1 8 -7 5 -18 -4 -14 -8 -17 -13 -9 -4 7 -7 -5 -6 -26 0
-22 5 -42 10 -45 5 -4 5 -13 1 -20 -12 -19 -15 -78 -4 -85 5 -3 9 -10 9 -15 0
-6 -5 -7 -11 -3 -7 4 -10 1 -7 -7 3 -8 10 -13 16 -12 6 2 9 -4 6 -12 -4 -8
-10 -12 -15 -9 -5 3 -9 0 -9 -5 0 -6 6 -11 13 -11 9 0 8 -3 -2 -9 -11 -7 -11
-9 0 -13 8 -3 9 -9 4 -18 -13 -20 -15 -60 -4 -60 5 0 9 -5 9 -11 0 -5 -4 -8
-8 -5 -10 6 -10 -40 1 -50 11 -12 8 -26 -4 -18 -7 4 -10 1 -7 -7 3 -8 10 -13
16 -12 5 1 8 -7 5 -18 -4 -14 -8 -17 -13 -9 -4 7 -7 -5 -6 -26 0 -22 5 -42 10
-45 5 -4 5 -13 1 -20 -12 -19 -15 -78 -4 -85 5 -3 9 -10 9 -15 0 -6 -5 -7 -11
-3 -7 4 -10 1 -7 -7 3 -8 10 -13 16 -12 6 2 9 -4 6 -12 -4 -8 -10 -12 -15 -9
-5 3 -9 0 -9 -5 0 -6 6 -11 13 -11 9 0 8 -3 -2 -9 -11 -7 -11 -9 0 -13 8 -3 9
-9 4 -18 -13 -20 -15 -60 -4 -60 5 0 9 -5 9 -11 0 -5 -4 -8 -8 -5 -10 6 -10
-40 1 -50 11 -12 8 -26 -4 -18 -7 4 -10 1 -7 -7 3 -8 10 -13 16 -12 5 1 8 -7
5 -18 -4 -14 -8 -17 -13 -9 -4 7 -7 -5 -6 -26 0 -22 5 -42 10 -45 5 -4 5 -13
1 -20 -12 -19 -15 -78 -4 -85 5 -3 9 -10 9 -15 0 -6 -5 -7 -11 -3 -7 4 -10 1
-7 -7 3 -8 10 -13 16 -12 6 2 9 -4 6 -12 -4 -8 -10 -12 -15 -9 -5 3 -9 0 -9
-5 0 -6 6 -11 13 -11 9 0 8 -3 -2 -9 -11 -7 -11 -9 0 -13 8 -3 9 -9 4 -18 -13
-20 -15 -60 -4 -60 5 0 9 -5 9 -11 0 -5 -4 -8 -8 -5 -10 6 -10 -40 1 -50 11
-12 8 -26 -4 -18 -7 4 -10 1 -7 -7 3 -8 10 -13 16 -12 5 1 8 -7 5 -18 -4 -14
-8 -17 -13 -9 -4 7 -7 -5 -6 -26 0 -22 5 -42 10 -45 5 -4 5 -13 1 -20 -12 -19
-15 -78 -4 -85 5 -3 9 -10 9 -15 0 -6 -5 -7 -11 -3 -7 4 -10 1 -7 -7 3 -8 10
-13 16 -12 6 2 9 -4 6 -12 -4 -8 -10 -12 -15 -9 -5 3 -9 0 -9 -5 0 -6 6 -11
13 -11 9 0 8 -3 -2 -9 -11 -7 -11 -9 0 -13 8 -3 9 -9 4 -18 -13 -20 -15 -60
-4 -60 5 0 9 -5 9 -11 0 -5 -4 -8 -8 -5 -10 6 -10 -40 1 -50 11 -12 8 -26 -4
-18 -7 4 -10 1 -7 -7 3 -8 10 -13 16 -12 5 1 8 -7 5 -18 -4 -14 -8 -17 -13 -9
-4 7 -7 -5 -6 -26 0 -22 5 -42 10 -45 5 -4 5 -13 1 -20 -12 -19 -15 -78 -4
-85 5 -3 9 -10 9 -15 0 -6 -5 -7 -11 -3 -7 4 -10 1 -7 -7 3 -8 10 -13 16 -12
6 2 9 -4 6 -12 -4 -8 -10 -12 -15 -9 -5 3 -9 0 -9 -5 0 -6 6 -11 13 -11 9 0 8
-3 -2 -9 -11 -7 -11 -9 0 -13 8 -3 9 -9 4 -18 -13 -20 -15 -60 -4 -60 5 0 9
-5 9 -11 0 -5 -4 -8 -8 -5 -10 6 -10 -40 1 -50 11 -12 8 -26 -4 -18 -7 4 -10
1 -7 -7 3 -8 10 -13 16 -12 5 1 8 -7 5 -18 -4 -14 -8 -17 -13 -9 -4 7 -7 -5
-6 -26 0 -22 5 -42 10 -45 5 -4 5 -13 1 -20 -12 -19 -15 -78 -4 -85 5 -3 9
-10 9 -15 0 -6 -5 -7 -11 -3 -7 4 -10 1 -7 -7 3 -8 10 -13 15 -12 5 1 9 -7 9
-17 0 -14 -3 -16 -13 -8 -9 7 -13 7 -13 0 0 -6 5 -14 10 -17 6 -3 10 -11 10
-16 0 -6 -5 -7 -11 -3 -7 4 -10 1 -7 -7 3 -8 10 -13 16 -12 5 1 8 -7 5 -18 -4
-14 -8 -17 -13 -9 -4 7 -7 -5 -6 -26 0 -22 5 -42 10 -45 5 -4 5 -13 1 -20 -12
-19 -15 -78 -4 -85 5 -3 9 -10 9 -15 0 -6 -5 -7 -11 -3 -7 4 -10 1 -7 -7 3 -8
10 -13 16 -12 6 2 9 -4 6 -12 -4 -8 -10 -12 -15 -9 -5 3 -9 0 -9 -5 0 -6 6
-11 13 -11 9 0 8 -3 -2 -9 -11 -7 -11 -9 0 -13 8 -3 9 -9 4 -18 -13 -20 -15
-60 -4 -60 5 0 9 -5 9 -11 0 -5 -4 -8 -8 -5 -10 6 -10 -40 1 -50 11 -12 8 -26
-4 -18 -7 4 -10 1 -7 -7 3 -8 10 -13 16 -12 5 1 8 -7 5 -18 -4 -14 -8 -17 -13
-9 -4 7 -7 -5 -6 -26 0 -22 5 -42 10 -45 5 -4 5 -13 1 -20 -12 -19 -15 -78 -4
-85 5 -3 9 -10 9 -15 0 -6 -5 -7 -11 -3 -7 4 -10 1 -7 -7 3 -8 10 -13 15 -12
12 2 10 -33 -2 -44 -4 -5 -5 -3 -1 4 3 6 3 14 -2 17 -4 2 -9 -4 -9 -15 -1 -10
2 -19 8 -19 5 0 9 -5 9 -11 0 -5 -4 -8 -8 -5 -4 2 -7 -7 -6 -22 2 -43 3 -44
18 -39 8 3 17 3 20 -1 11 -10 36 -11 36 -1 0 6 6 7 13 2 6 -4 38 -8 70 -8 44
0 57 3 57 15 0 13 1 13 10 0 10 -16 70 -23 70 -8 0 5 -10 7 -22 3 -21 -5 -21
-5 -5 6 13 7 22 8 29 1 13 -13 40 -4 31 11 -3 6 -1 7 6 3 9 -6 9 -12 -1 -24
-8 -11 -4 -10 11 3 14 11 21 15 18 8 -4 -6 -3 -15 3 -18 6 -4 9 -1 8 6 -2 6 3
14 11 17 8 2 11 0 7 -6 -3 -6 -1 -14 5 -18 7 -4 9 -3 5 4 -3 6 -2 13 4 17 5 3
10 2 10 -2 0 -5 14 -9 30 -9 17 -1 30 3 30 8 0 5 -5 6 -12 2 -7 -5 -8 -3 -4 5
6 9 13 8 27 -5 15 -14 21 -14 34 -4 10 8 15 9 15 1 0 -6 5 -11 11 -11 5 0 8 4
4 9 -3 5 -1 13 5 16 6 4 9 1 8 -5 -2 -9 16 -13 59 -14 52 -1 60 1 50 13 -10
12 -9 13 7 4 22 -12 59 -5 49 10 -3 6 -1 7 5 3 6 -4 9 -13 5 -21 -3 -8 0 -15
6 -15 6 0 11 10 11 23 1 19 2 20 11 5 6 -11 16 -15 26 -11 12 5 14 3 9 -8 -4
-8 -1 -6 7 4 9 10 22 20 30 21 8 1 22 8 31 15 8 7 21 9 27 5 7 -4 2 10 -11 32
-16 26 -18 34 -8 26 15 -12 17 -11 15 7 0 11 -5 17 -9 15 -4 -3 -8 -1 -8 5 0
5 4 12 10 16 5 3 7 12 4 20 -4 8 -11 12 -17 8 -6 -4 -7 -1 -1 8 14 23 15 49 1
49 -8 0 -7 4 3 10 10 6 11 10 3 10 -9 0 -10 7 -3 25 8 20 6 27 -5 31 -13 5
-13 8 0 21 16 15 11 38 -6 28 -5 -4 -9 -1 -9 4 0 6 5 11 10 11 14 0 4 51 -12
62 -10 6 -8 8 4 8 18 0 21 19 5 31 -5 3 -9 12 -10 20 -2 8 -6 19 -10 26 -4 6
-2 15 4 19 7 4 9 3 5 -4 -3 -6 -2 -13 4 -17 6 -4 8 -10 5 -15 -3 -5 -1 -11 4
-14 7 -5 8 22 1 32 -2 1 -3 11 -4 21 0 11 -4 22 -8 26 -4 4 -4 14 -1 23 5 11
2 13 -8 8 -10 -6 -10 -4 1 6 8 7 15 27 15 45 0 26 -2 29 -14 20 -12 -10 -13
-9 -7 2 15 25 14 75 -2 100 -16 24 -16 25 0 13 15 -12 17 -11 15 7 0 11 -5 17
-9 15 -11 -7 -10 4 4 29 10 19 9 20 -3 10 -12 -10 -15 -8 -15 7 0 10 5 16 11
12 5 -3 4 2 -4 11 -7 9 -9 17 -4 17 15 0 8 40 -8 51 -12 7 -11 9 3 9 23 0 17
46 -8 64 -10 8 -16 18 -11 22 4 4 7 2 7 -4 0 -7 4 -12 8 -12 5 0 9 7 9 15 0 8
-4 15 -9 15 -4 0 -8 5 -8 11 0 5 4 8 8 5 5 -3 9 1 9 9 0 18 -9 19 -27 3 -8 -7
-6 -3 5 10 19 22 30 56 16 48 -4 -3 -13 4 -20 16 -7 11 -8 17 -3 14 14 -9 22
20 9 33 -8 8 -8 11 1 11 19 0 14 20 -5 21 -15 0 -15 2 2 9 11 5 15 9 9 9 -8 1
-9 12 -4 37 6 27 5 37 -6 41 -8 3 -14 10 -14 15 0 6 7 7 16 4 13 -5 14 -4 6 7
-7 8 -9 17 -5 20 3 4 -4 18 -17 32 -13 14 -19 25 -13 25 6 0 13 -6 16 -12 2
-7 8 -10 12 -5 5 4 3 13 -3 19 -14 14 -16 32 -4 24 5 -3 9 2 9 10 0 9 -6 13
-14 10 -8 -3 -12 -2 -8 3 3 5 2 11 -2 14 -5 2 -3 2 4 1 12 -3 11 45 -2 66 -3
5 -1 10 5 10 6 0 8 5 5 10 -5 8 -12 7 -23 -2 -15 -12 -16 -11 -3 4 7 10 17 15
22 12 5 -3 9 0 9 5 0 6 -5 11 -11 11 -6 0 -7 5 -2 13 11 17 13 36 4 41 -4 3
-6 19 -5 35 2 34 -4 38 -26 19 -8 -7 -4 0 10 16 18 21 20 27 8 23 -14 -5 -15
-3 -2 21 14 28 9 47 -6 22 -7 -11 -9 -10 -8 7 2 14 7 19 18 16 9 -4 7 0 -5 10
-15 13 -16 16 -5 17 13 0 13 1 0 10 -8 5 -10 10 -5 10 6 0 10 20 10 44 0 26
-4 42 -10 39 -6 -2 -11 7 -11 21 0 14 4 22 8 20 16 -10 8 9 -9 22 -17 13 -17
14 2 8 16 -6 18 -5 8 7 -16 16 -17 33 -2 23 7 -4 10 -1 7 7 -3 8 -10 13 -16
12 -11 -3 -1 43 14 69 6 9 3 9 -9 -1 -10 -8 -20 -11 -24 -7 -3 3 -1 6 6 6 9 0
12 9 9 25 -3 14 -2 25 1 25 3 0 6 22 6 49 0 39 -3 48 -15 43 -12 -4 -13 -2 -2
9 17 18 15 32 -4 25 -8 -3 -12 -2 -9 4 3 6 13 10 21 10 8 0 14 5 14 11 0 5 -4
8 -8 5 -4 -2 -14 -1 -22 5 -12 7 -12 9 3 9 10 0 15 5 12 10 -4 6 -12 8 -18 4
-7 -3 -5 0 3 8 15 13 23 58 11 58 -4 0 -12 -5 -19 -12 -7 -7 -12 -9 -12 -5 0
3 9 15 21 26 15 14 17 21 8 26 -8 6 -10 4 -4 -5 5 -9 4 -11 -3 -6 -7 4 -8 15
-2 30 6 17 4 27 -7 38 -12 12 -12 17 -2 23 8 5 10 4 5 -3 -4 -7 -2 -12 4 -12
11 0 8 15 -8 59 -3 8 -1 12 4 8 5 -3 10 4 10 15 0 19 -1 19 -18 -2 -10 -12
-18 -17 -18 -12 0 6 4 13 9 16 5 3 7 15 4 26 -3 11 -1 20 4 20 5 0 10 7 10 15
0 8 -4 15 -9 15 -5 0 -6 5 -2 12 4 7 9 23 10 37 2 18 0 21 -9 12 -6 -6 -15
-11 -20 -11 -5 0 -1 7 8 16 11 11 13 20 5 28 -5 7 -7 16 -3 20 4 4 1 12 -7 17
-12 9 -12 10 3 5 9 -3 17 -1 17 4 0 6 -4 10 -10 10 -5 0 -7 6 -5 13 9 27 13
77 6 81 -4 3 -6 19 -5 35 1 17 -2 31 -8 31 -5 0 -6 6 -1 13 11 17 12 68 2 61
-5 -3 -9 -1 -9 5 0 5 5 13 10 16 8 5 8 11 1 19 -6 7 -8 16 -4 19 3 4 -2 16
-12 27 -18 20 -18 21 1 14 17 -7 17 -6 5 9 -8 10 -9 17 -3 17 6 0 10 9 9 19
-1 13 -6 17 -17 13 -13 -5 -13 -3 -1 11 9 12 10 17 2 17 -7 0 -9 5 -6 10 4 6
11 7 17 4 7 -4 8 -2 4 5 -4 6 -12 8 -18 5 -6 -4 -8 -1 -6 7 3 8 11 13 18 11
10 -2 11 0 3 10 -6 7 -9 30 -8 50 2 21 -1 35 -6 33 -4 -3 -7 15 -5 40 2 27 -2
45 -8 45 -6 0 -5 4 3 9 11 7 11 9 0 14 -10 4 -10 6 -1 6 6 1 12 6 12 12 0 5
-4 7 -10 4 -5 -3 -10 -1 -10 4 0 6 5 11 10 11 6 0 10 5 10 11 0 5 -5 7 -11 3
-8 -5 -8 -1 0 13 6 11 7 24 3 28 -4 5 -1 5 6 1 7 -4 10 -11 7 -16 -3 -5 -1
-11 5 -15 9 -6 14 7 11 28 -2 12 6 8 20 -10 12 -14 12 -16 0 -8 -9 5 -12 4 -7
-3 8 -14 36 -5 55 17 12 14 12 14 7 -5 -7 -22 -6 -22 59 -25 19 0 35 -5 35 -9
0 -4 7 -10 14 -13 10 -4 14 -1 10 11 -2 9 2 4 10 -13 13 -26 21 -27 17 -2 -2
12 6 8 20 -10 10 -11 10 -14 2 -9 -17 10 -16 -2 1 -20 11 -11 16 -11 19 -1 3
7 6 4 6 -7 1 -13 6 -16 17 -12 15 6 15 4 3 -11 -12 -14 -12 -16 0 -8 11 6 13
4 8 -8 -6 -17 8 -31 33 -32 8 0 14 -7 12 -17 -1 -9 3 -20 9 -24 7 -4 9 -3 5 4
-3 6 -2 13 3 16 11 7 9 -13 -3 -33 -6 -10 -5 -12 2 -7 7 4 13 2 13 -3 2 -12 5
-26 9 -38 1 -5 2 -11 1 -15 0 -4 7 -4 16 -1 12 5 15 2 10 -10 -7 -18 24 -42
38 -29 5 4 5 2 1 -5 -3 -6 -2 -15 4 -18 8 -5 7 -11 -1 -21 -14 -17 2 -19 21
-1 8 6 6 2 -4 -10 -19 -23 -19 -23 0 -23 16 0 17 -2 4 -10 -12 -8 -12 -10 5
-10 12 0 27 -13 38 -33 l17 -32 -25 30 -26 30 17 -38 c10 -21 23 -36 29 -33 7
2 12 -2 12 -10 0 -7 -4 -11 -9 -8 -4 3 -5 -2 -2 -10 8 -20 14 -20 28 0 10 13
12 13 12 -5 0 -11 -3 -18 -7 -15 -4 2 -9 -3 -12 -11 -4 -9 -1 -12 7 -9 7 3 16
-2 19 -10 4 -9 1 -14 -6 -12 -7 1 -9 1 -4 -1 4 -3 5 -8 2 -13 -3 -4 3 -6 14
-3 10 3 22 0 25 -6 4 -6 1 -9 -7 -5 -8 3 -18 0 -23 -7 -4 -7 -3 -10 2 -7 5 3
18 2 29 -3 l20 -8 -20 -1 c-18 -1 -19 -1 -2 -11 19 -11 24 -34 5 -24 -7 4 2
-7 19 -22 23 -21 30 -32 22 -40 -7 -7 -7 -13 -1 -17 6 -3 13 -2 17 4 3 5 11
10 16 10 6 0 4 -7 -5 -15 -17 -18 -11 -45 10 -45 8 0 14 -5 14 -11 0 -5 -6 -7
-12 -3 -9 5 -9 3 0 -7 11 -12 15 -11 28 5 18 25 18 16 0 -20 -15 -27 -13 -49
3 -39 4 2 14 -14 21 -36 14 -40 40 -65 55 -51 5 4 5 1 1 -6 -4 -7 -12 -10 -17
-7 -5 4 -4 -5 3 -19 13 -29 19 -31 36 -14 7 7 12 8 12 4 0 -5 -7 -14 -17 -21
-13 -9 -13 -14 -3 -20 9 -6 11 -4 5 5 -5 9 -4 11 4 6 9 -6 9 -11 -1 -24 -10
-12 -10 -14 0 -8 11 7 17 -5 13 -28 -1 -5 4 -4 11 2 11 9 14 5 13 -16 0 -18 5
-26 14 -24 12 3 12 1 0 -14 -13 -16 -12 -16 6 -6 18 9 21 7 22 -11 2 -15 0
-18 -6 -8 -6 9 -11 10 -15 2 -4 -6 -3 -11 2 -11 10 0 37 -50 33 -63 -1 -5 3
-6 9 -2 5 3 10 2 10 -2 0 -5 10 -14 23 -22 19 -13 21 -12 10 1 -19 23 -4 29
18 7 17 -17 55 -17 44 1 -3 5 0 12 6 16 7 4 9 3 6 -2 -3 -6 -2 -16 4 -24 7
-13 9 -12 9 2 0 21 16 32 26 17 5 -8 3 -9 -6 -4 -8 5 -11 4 -7 -3 4 -5 16 -8
26 -5 10 3 22 0 25 -6 4 -5 13 -8 21 -5 8 4 12 11 9 16 -4 6 -10 5 -16 -3 -8
-11 -9 -11 -5 1 2 8 8 15 13 15 5 0 16 4 24 10 12 7 13 6 3 -6 -8 -9 -9 -20
-3 -29 8 -12 10 -12 10 3 0 12 4 16 13 10 6 -4 19 -6 29 -5 9 2 19 -2 22 -7 4
-6 13 -8 21 -5 8 4 13 10 10 14 -3 4 3 14 13 21 15 12 16 12 5 -1 -8 -10 -9
-21 -3 -30 8 -12 10 -12 10 3 0 12 4 16 12 11 7 -5 27 -7 44 -5 18 1 35 -3 39
-8 3 -6 11 -9 16 -5 5 3 7 9 5 13 -3 4 1 8 9 8 8 0 12 -4 9 -9 -3 -4 4 -8 15
-8 12 0 21 5 21 11 0 6 7 3 16 -5 19 -20 31 -21 15 -2 -10 11 -9 14 1 12 7 -1
18 -5 24 -8 6 -4 11 -1 11 7 0 8 -4 12 -8 10 -3 -3 -9 4 -12 15 -3 11 -1 18 4
14 5 -3 9 0 9 5 0 6 -6 11 -12 11 -9 0 -8 4 2 10 13 8 12 10 -3 10 -10 0 -17
6 -16 13 3 26 -1 38 -13 31 -8 -5 -9 -2 -5 10 4 10 1 19 -8 22 -8 4 -13 10
-10 14 3 4 -6 15 -19 23 -13 9 -24 22 -23 29 1 37 -4 47 -20 41 -15 -5 -15 -3
2 11 16 14 17 17 3 12 -13 -4 -15 -1 -11 11 5 12 2 15 -9 10 -12 -4 -14 -1
-10 15 4 15 7 17 14 6 8 -10 9 -10 5 2 -2 8 -14 14 -25 14 -12 -1 -22 3 -22 7
0 5 8 9 18 9 14 0 15 2 2 9 -8 6 -19 7 -25 3 -5 -3 -4 2 4 11 9 12 10 17 2 17
-7 0 -10 4 -6 9 3 5 1 12 -5 16 -6 4 -8 10 -5 15 3 5 1 11 -5 15 -6 4 -7 11
-4 17 4 7 2 8 -5 4 -9 -6 -9 -11 -1 -21 8 -10 8 -15 -1 -21 -7 -4 -9 -3 -5 4
3 6 2 13 -3 16 -5 3 -7 15 -4 25 3 10 0 22 -6 25 -7 5 -9 0 -5 -11 5 -17 5
-17 -6 0 -17 26 -21 59 -7 52 7 -4 3 0 -7 9 -10 8 -22 14 -25 11 -4 -2 -8 7
-9 21 -3 46 -5 54 -14 54 -5 0 -7 4 -4 9 3 5 -4 11 -15 14 -17 5 -19 9 -10 26
10 17 9 20 -5 14 -14 -5 -16 -1 -12 22 5 21 1 29 -13 32 -14 4 -17 9 -9 18 7
9 3 20 -15 39 -13 14 -23 28 -22 30 4 5 -38 76 -46 76 -4 0 0 -12 9 -27 l16
-28 -20 25 c-16 19 -18 29 -10 43 5 11 6 17 1 14 -5 -3 -19 14 -32 39 -13 28
-27 44 -35 41 -7 -3 -13 1 -13 9 0 7 5 10 10 7 6 -4 7 -1 3 6 -5 7 -14 10 -22
7 -12 -5 -12 -2 -3 17 11 20 11 21 -5 8 -9 -8 -16 -10 -15 -5 1 5 1 17 0 28
-1 15 -4 16 -15 7 -12 -10 -13 -8 -9 8 3 13 1 21 -6 21 -7 0 -9 5 -5 13 6 8 3
8 -9 -1 -14 -12 -16 -11 -12 7 2 14 -8 29 -33 51 -20 16 -50 42 -66 57 -16 16
-27 23 -23 17 3 -6 0 -11 -8 -11 -10 0 -11 5 -4 19 9 16 7 18 -17 14 -24 -5
-25 -4 -11 12 8 9 12 24 10 32 -3 9 -1 11 4 5 12 -15 47 -19 37 -4 -5 9 -1 11
14 7 14 -4 20 -2 15 5 -4 6 0 8 11 4 12 -5 19 0 26 16 5 12 9 18 9 14 1 -4 11
-3 24 3 20 10 20 9 -3 -10 l-25 -21 28 12 c15 7 28 16 28 21 1 4 2 12 3 17 0
5 4 13 8 17 4 3 5 -4 3 -16 -3 -17 -2 -21 6 -13 6 6 17 10 23 9 6 -2 8 -1 4 1
-17 10 -7 24 12 18 14 -4 22 -1 26 10 4 9 13 14 22 10 13 -5 13 -3 1 11 -12
15 -11 16 9 10 18 -6 21 -4 15 10 -4 11 -2 15 4 11 5 -4 19 1 29 9 10 9 13 12
5 8 -10 -5 -12 -3 -7 5 5 7 14 10 22 7 17 -7 28 10 13 20 -8 5 -9 3 -4 -6 6
-9 4 -11 -4 -6 -9 6 -8 13 5 27 9 11 19 17 22 15 5 -5 32 19 32 28 0 3 -8 3
-17 -1 -19 -7 -18 -5 11 17 11 8 17 10 13 3 -4 -6 -3 -14 3 -18 9 -6 14 7 11
28 0 4 4 7 10 7 6 0 9 7 5 15 -3 9 0 15 8 15 7 0 21 9 31 20 10 11 14 20 10
20 -5 0 -4 5 3 12 8 8 8 16 0 32 -10 19 -10 20 6 7 9 -8 16 -10 15 -5 -5 29 2
55 14 48 6 -4 3 3 -8 16 l-20 23 22 -12 c20 -10 21 -9 17 16 -3 15 -7 30 -9
34 -3 4 1 6 8 5 6 0 14 4 15 9 2 6 8 15 13 22 7 7 6 13 0 17 -12 8 -19 -4 -15
-27 1 -11 0 -16 -4 -12 -8 8 -11 54 -3 53 19 -2 28 4 28 17 0 8 -7 15 -16 16
-11 0 -10 3 5 9 14 5 20 16 19 32 -1 12 3 29 9 37 8 11 8 13 -1 7 -8 -4 -13
-2 -13 4 0 6 -6 8 -12 5 -7 -4 -4 2 7 12 14 13 20 31 20 61 0 23 -3 42 -6 42
-3 0 -6 7 -6 15 0 8 4 15 8 15 4 0 7 9 6 20 -1 21 -12 26 -22 10 -3 -5 -1 -10
6 -10 7 0 10 -3 6 -6 -3 -3 -11 -3 -17 1 -8 5 -8 11 1 21 6 8 9 23 6 35 -5 18
-3 19 11 7 15 -11 15 -11 6 2 -6 8 -10 27 -9 42 1 21 -2 25 -17 23 -10 -2 -16
0 -13 6 4 5 14 9 23 9 14 0 15 2 2 10 -9 6 -20 5 -30 -3 -13 -11 -13 -10 -1 5
7 10 17 16 20 13 4 -2 8 2 8 10 0 8 -4 12 -8 10 -4 -3 -9 2 -12 9 -3 8 -1 17
6 20 7 2 3 5 -8 6 l-20 1 20 9 20 9 -20 1 c-11 2 -24 2 -29 1 -5 -1 -4 5 3 13
10 12 9 21 -4 46 -9 18 -14 34 -11 38 3 3 6 0 6 -6 0 -7 5 -12 10 -12 6 0 5 8
-2 19 -7 11 -16 17 -20 15 -4 -3 -8 6 -8 20 0 14 -4 26 -10 26 -5 0 -10 5 -10
11 0 5 6 7 13 4 6 -4 -3 6 -21 22 -26 22 -30 31 -21 40 10 10 7 17 -12 32 -13
11 -27 20 -30 21 -4 0 -10 11 -13 25 -4 14 -11 25 -17 25 -6 0 -7 -5 -3 -12 4
-7 3 -8 -5 -4 -9 6 -9 11 1 24 8 10 9 13 1 9 -7 -4 -16 0 -21 10 -9 15 -12 15
-29 3 -15 -13 -15 -11 2 9 l20 24 -24 -8 c-17 -5 -21 -4 -16 5 4 6 -2 20 -14
32 l-22 19 7 -25 c4 -17 2 -26 -6 -26 -6 0 -9 4 -6 9 18 28 -26 60 -53 39 -14
-12 -15 -11 -2 5 8 9 12 18 10 20 -38 22 -55 29 -71 32 -16 3 -19 0 -15 -15 3
-11 1 -18 -4 -14 -5 3 -9 13 -9 23 0 21 -36 35 -47 19 -4 -7 -1 -8 7 -3 9 5
11 4 6 -4 -6 -9 -11 -9 -22 0 -17 14 -18 23 -1 13 7 -4 7 -2 -2 7 -10 11 -15
11 -18 2 -3 -7 -9 -13 -14 -13 -6 0 -8 4 -5 9 3 5 -3 11 -13 14 -15 3 -18 1
-14 -12 4 -15 3 -15 -9 0 -7 9 -19 14 -27 11 -10 -3 -11 0 -5 9 7 12 5 12 -9
0 -9 -7 -17 -9 -17 -4 0 5 -10 9 -22 8 -13 -1 -27 0 -33 3 -16 9 -45 9 -39 0
3 -4 1 -8 -5 -8 -5 0 -13 5 -16 11 -5 6 -12 4 -22 -8 -8 -10 -12 -13 -10 -8 7
14 -41 36 -49 24 -3 -6 -12 -5 -22 3 -13 11 -14 11 -7 -1 6 -11 4 -13 -9 -8
-9 4 -15 3 -11 -2 3 -5 -3 -8 -12 -6 -10 1 -23 -1 -29 -6 -7 -5 -11 -3 -11 6
0 8 5 11 10 8 6 -4 7 -1 2 7 -6 10 -11 8 -24 -6 -9 -11 -15 -17 -14 -15 2 2
-5 10 -15 17 -14 11 -20 10 -35 -9 -10 -12 -16 -16 -12 -9 4 7 0 12 -9 12 -9
0 -16 5 -16 12 0 6 -3 8 -6 5 -4 -4 -1 -15 7 -24 7 -10 2 -8 -12 5 -26 23 -42
21 -32 -4 3 -8 0 -14 -7 -14 -6 0 -8 5 -5 10 3 6 1 10 -5 10 -6 0 -8 6 -5 13
4 6 0 4 -8 -5 -12 -16 -16 -16 -35 -2 -20 14 -21 14 -15 -3 6 -17 5 -17 -13
-1 -16 14 -23 15 -32 6 -9 -9 -12 -9 -12 2 0 9 -4 8 -14 -5 -7 -10 -21 -20
-31 -21 -9 -1 -14 1 -10 4 4 4 11 7 16 7 5 0 9 3 9 8 0 4 -3 6 -7 6 -11 -2
-54 -18 -64 -24 -4 -3 -11 -1 -14 5 -4 6 -3 10 2 9 4 -1 15 -1 23 0 13 1 13 3
0 10 -8 6 -19 7 -25 3 -25 -16 -76 -29 -81 -21 -3 5 -2 9 3 8 4 -1 15 -1 23 0
13 1 13 3 0 10 -8 6 -19 7 -25 3 -25 -16 -76 -29 -81 -21 -3 5 -2 9 3 8 4 -1
15 -1 23 0 13 1 13 3 0 10 -8 6 -19 7 -25 3 -25 -16 -76 -29 -81 -21 -3 5 -2
9 3 8 4 -1 15 -1 23 0 13 1 13 3 0 10 -8 6 -19 7 -25 3 -25 -16 -76 -29 -81
-21 -3 5 -2 9 3 8 4 -1 15 -1 23 0 13 1 13 3 0 10 -8 6 -19 7 -25 3 -25 -16
-76 -29 -81 -21 -3 5 -2 9 3 8 4 -1 15 -1 23 0 13 1 13 3 0 10 -8 6 -19 7 -25
3 -25 -16 -76 -29 -81 -21 -3 5 -2 9 3 8 4 -1 15 -1 23 0 13 1 13 3 1 10 -14
9 -19 8 -77 -21 -24 -12 -31 -12 -31 -2 0 7 3 13 6 12 3 0 13 0 21 1 13 1 13
2 0 11 -9 6 -19 5 -28 -2 -10 -9 -16 -8 -24 3 -8 11 -9 11 -5 -3 4 -10 -1 -18
-14 -21 -20 -5 -27 9 -7 15 7 3 8 7 3 10 -6 3 -16 0 -22 -8z m782 -12 c-10
-11 -35 -10 -42 0 -3 6 -1 8 5 4 6 -3 13 -2 17 4 4 6 11 8 16 4 6 -3 8 -9 4
-12z m202 -4 c-3 -8 -6 -5 -6 6 -1 11 2 17 5 13 3 -3 4 -12 1 -19z m184 5 c13
-16 12 -17 -3 -4 -10 7 -18 15 -18 17 0 8 8 3 21 -13z m-41 -3 c0 -5 -5 -10
-11 -10 -5 0 -7 5 -4 10 3 6 8 10 11 10 2 0 4 -4 4 -10z m445 -60 c3 -5 1 -10
-4 -10 -6 0 -11 5 -11 10 0 6 2 10 4 10 3 0 8 -4 11 -10z m30 -20 c3 -5 1 -10
-4 -10 -6 0 -11 5 -11 10 0 6 2 10 4 10 3 0 8 -4 11 -10z m241 -212 l19 -23
-25 20 c-14 11 -27 21 -29 22 -2 2 0 3 6 3 5 0 18 -10 29 -22z m-1865 -72 c-6
-7 -7 -17 -3 -21 4 -5 1 -5 -6 -1 -9 6 -10 11 -3 20 6 7 7 17 3 21 -4 5 -1 5
6 1 9 -6 10 -11 3 -20z m681 -129 c-7 -8 -7 -18 -2 -27 8 -12 10 -12 10 4 0
16 2 17 17 5 14 -12 16 -12 8 0 -6 10 -4 13 6 9 51 -21 52 -21 44 -8 -5 8 -4
11 3 6 5 -3 12 -1 14 6 3 7 7 5 11 -6 5 -11 3 -15 -5 -10 -7 4 -8 3 -4 -5 4
-6 12 -9 17 -5 5 3 7 9 5 13 -3 4 1 8 9 8 8 0 12 -4 10 -8 -3 -4 2 -10 10 -13
10 -4 15 -1 13 9 -2 7 2 13 7 12 6 -1 9 -6 7 -11 -2 -5 5 -3 14 5 10 8 15 9
11 3 -4 -7 0 -14 8 -18 8 -3 17 -1 20 4 4 6 11 10 16 10 6 0 8 -4 5 -8 -3 -5
2 -9 10 -9 8 0 13 6 10 14 -3 7 -1 13 4 13 6 0 10 -6 10 -13 0 -10 13 -13 45
-12 24 0 48 4 51 8 12 12 26 8 18 -5 -5 -9 -2 -9 9 1 14 11 17 11 17 0 0 -11
2 -11 10 1 6 9 10 11 10 3 0 -7 7 -10 15 -7 8 4 12 11 8 17 -3 6 -1 7 5 3 7
-4 12 -15 13 -24 0 -14 2 -13 9 3 5 11 9 15 9 10 1 -6 13 -12 28 -13 15 -1 31
-6 36 -11 5 -5 15 -7 22 -5 7 3 16 1 19 -5 4 -6 13 -8 21 -5 8 4 12 10 9 15
-10 17 3 9 22 -13 15 -19 16 -20 2 -9 -11 8 -18 9 -18 3 0 -6 9 -14 20 -17 11
-3 20 -11 20 -17 0 -7 4 -7 13 0 8 7 17 6 30 -3 11 -8 14 -14 7 -17 -16 -5 9
-58 27 -58 7 0 13 -5 13 -11 0 -5 -6 -7 -12 -4 -7 4 -6 1 2 -7 16 -14 19 -23
22 -63 1 -13 5 -22 9 -19 4 2 9 -3 12 -11 4 -10 1 -12 -11 -9 -15 5 -16 4 -1
-8 11 -9 14 -19 8 -33 -11 -28 -10 -43 1 -25 6 9 12 11 17 5 5 -6 6 -9 4 -8
-14 8 -28 -37 -24 -79 2 -27 0 -55 -6 -62 -6 -7 -6 -17 -1 -26 5 -8 3 -22 -6
-35 -8 -12 -11 -25 -7 -29 4 -4 0 -4 -9 -1 -14 6 -29 -13 -32 -38 -1 -5 -10
-15 -20 -23 -11 -8 -16 -14 -11 -14 5 0 1 -6 -10 -13 -11 -9 -15 -19 -10 -26
6 -10 3 -11 -12 -3 -14 8 -24 6 -43 -10 -14 -11 -18 -16 -10 -12 12 6 13 5 2
-7 -8 -9 -15 -10 -20 -4 -4 6 -13 11 -21 13 -12 3 -12 1 0 -14 13 -16 12 -16
-7 -6 -22 12 -67 5 -59 -8 7 -11 -22 -6 -32 5 -4 4 -2 5 6 0 10 -5 12 -4 7 4
-4 6 -12 9 -17 5 -5 -3 -7 -9 -4 -14 3 -5 0 -12 -6 -16 -7 -4 -9 -3 -5 4 3 6
2 13 -4 17 -5 3 -11 -2 -11 -12 -1 -16 -2 -16 -6 1 -4 15 -7 16 -14 5 -7 -12
-9 -12 -9 1 0 13 -1 13 -10 0 -9 -13 -10 -13 -10 0 -1 9 -6 6 -14 -9 -8 -15
-16 -20 -20 -12 -4 6 -2 11 4 11 6 0 8 5 5 10 -5 8 -11 7 -21 -1 -7 -6 -12
-15 -9 -19 3 -5 -3 -7 -12 -5 -10 1 -17 8 -15 14 3 16 -9 13 -25 -6 -8 -10
-12 -12 -8 -5 4 7 0 12 -10 12 -10 0 -13 -5 -9 -12 4 -7 -4 -3 -18 10 -25 23
-41 21 -31 -4 3 -8 0 -14 -7 -14 -6 0 -8 5 -5 10 3 6 1 10 -5 10 -6 0 -8 6 -5
13 4 6 0 4 -8 -5 -12 -16 -16 -16 -35 -2 -20 14 -21 14 -15 -3 6 -17 5 -17
-15 1 -20 18 -26 17 -19 -1 1 -5 6 -6 12 -5 5 2 6 0 2 -4 -11 -12 -36 -13 -43
-3 -3 5 -11 6 -17 2 -16 -10 -41 -13 -32 -5 4 4 11 7 16 7 8 0 14 14 7 16 -4
1 -60 -21 -71 -28 -6 -3 -7 -1 -3 5 5 8 -1 12 -14 12 -12 0 -18 4 -15 10 3 5
0 7 -9 4 -12 -5 -14 6 -13 64 2 39 -1 70 -6 69 -5 -1 -12 4 -14 11 -3 8 1 10
11 6 12 -5 15 -2 10 10 -3 9 -10 13 -15 10 -5 -3 -9 0 -9 5 0 6 6 11 13 11 8
0 7 4 -3 10 -8 5 -10 10 -5 10 6 0 11 9 12 20 2 20 1 20 -18 -2 -19 -21 -18
-20 1 10 20 30 20 32 3 33 -16 0 -16 1 2 9 11 5 14 9 8 9 -7 1 -13 8 -13 17 0
8 4 12 10 9 6 -3 7 1 4 9 -3 9 -10 13 -15 10 -5 -3 -6 3 -2 12 5 14 3 16 -11
11 -10 -4 -15 -3 -11 3 3 6 12 10 18 10 8 0 12 17 12 44 0 24 -4 42 -8 39 -5
-3 -6 -12 -2 -22 5 -12 4 -13 -6 -4 -9 9 -8 17 5 37 15 24 15 25 -1 19 -12 -5
-14 -3 -8 8 13 20 13 49 2 49 -6 0 -7 3 -4 7 4 3 2 12 -4 19 -7 8 -6 14 2 20
8 4 9 3 5 -4 -4 -7 -2 -12 3 -12 14 0 14 17 1 25 -5 3 -10 15 -10 26 0 11 4
18 9 15 10 -7 8 9 -4 37 -4 10 -5 21 -1 24 3 3 0 13 -7 21 -10 13 -9 14 2 7
10 -6 13 -4 9 6 -4 10 1 15 13 16 12 1 17 -3 13 -9 -5 -7 -2 -8 5 -4 7 5 10
14 7 22 -3 8 -1 14 4 14 6 0 10 -6 10 -14 0 -8 5 -18 12 -22 8 -5 9 -2 5 10
-4 9 -3 15 2 12 5 -3 14 1 21 9 7 8 15 15 17 15 3 0 1 -6 -5 -13z m328 -17 c0
-5 -5 -10 -11 -10 -5 0 -7 5 -4 10 3 6 8 10 11 10 2 0 4 -4 4 -10z m257 -17
c0 -9 -4 -10 -14 -2 -7 6 -13 12 -13 14 0 1 6 2 13 2 8 0 14 -6 14 -14z m40
-10 c0 -9 -4 -10 -14 -2 -7 6 -13 12 -13 14 0 1 6 2 13 2 8 0 14 -6 14 -14z
m-1297 -57 c0 -2 -8 -10 -17 -17 -16 -13 -17 -12 -4 4 13 16 21 21 21 13z
m565 -6 c3 -6 -1 -7 -9 -4 -18 7 -21 14 -7 14 6 0 13 -4 16 -10z m1432 -95 c0
-8 -4 -15 -9 -15 -10 0 -11 14 -1 23 9 10 10 9 10 -8z m-509 -60 c-3 -3 -9 2
-12 12 -6 14 -5 15 5 6 7 -7 10 -15 7 -18z m-1497 -8 c-6 -8 -7 -18 -3 -22 4
-5 1 -5 -6 -1 -10 6 -10 11 -1 22 6 8 14 14 16 14 3 0 0 -6 -6 -13z m1506
-147 c-5 -29 -13 -33 -13 -5 0 14 4 25 8 25 4 0 7 -9 5 -20z m500 -75 c0 -8
-4 -12 -9 -9 -5 3 -6 10 -3 15 9 13 12 11 12 -6z m-2006 -19 c-6 -7 -7 -17 -3
-21 4 -5 1 -5 -6 -1 -9 6 -10 11 -3 20 6 7 7 17 3 21 -4 5 -1 5 6 1 9 -6 10
-11 3 -20z m1449 -116 c0 -5 -5 -10 -11 -10 -5 0 -7 5 -4 10 3 6 8 10 11 10 2
0 4 -4 4 -10z m-6 -28 c3 -5 -1 -9 -9 -9 -8 0 -12 4 -9 9 3 4 7 8 9 8 2 0 6
-4 9 -8z m-103 -89 c-12 -20 -14 -14 -5 12 4 9 9 14 11 11 3 -2 0 -13 -6 -23z
m-1340 -6 c-6 -8 -7 -18 -3 -22 4 -5 1 -5 -6 -1 -10 6 -10 11 -1 22 6 8 14 14
16 14 3 0 0 -6 -6 -13z m1253 -15 c3 -5 -1 -9 -9 -9 -8 0 -15 4 -15 9 0 4 4 8
9 8 6 0 12 -4 15 -8z m676 -36 c0 -2 -7 -7 -16 -10 -8 -3 -12 -2 -9 4 6 10 25
14 25 6z m-10 -31 c0 -2 -6 -8 -13 -14 -10 -8 -14 -7 -14 2 0 8 6 14 14 14 7
0 13 -1 13 -2z m-1919 -159 c-6 -7 -7 -17 -3 -21 4 -5 1 -5 -6 -1 -9 6 -10 11
-3 20 6 7 7 17 3 21 -4 5 -1 5 6 1 9 -6 10 -11 3 -20z m1669 -96 c0 -5 -5 -10
-11 -10 -5 0 -7 5 -4 10 3 6 8 10 11 10 2 0 4 -4 4 -10z m-1669 -143 c-6 -8
-7 -18 -3 -22 4 -5 1 -5 -6 -1 -10 6 -10 11 -1 22 6 8 14 14 16 14 3 0 0 -6
-6 -13z m1527 -112 c-3 -3 -9 2 -12 12 -6 14 -5 15 5 6 7 -7 10 -15 7 -18z
m31 -9 c9 -11 9 -16 0 -22 -8 -4 -9 -3 -5 4 4 7 2 12 -3 12 -6 0 -11 5 -11 10
0 14 5 13 19 -4z m-555 -71 c-4 -8 -11 -12 -16 -9 -6 4 -5 10 3 15 19 12 19
11 13 -6z m-1003 -49 c-6 -7 -7 -17 -3 -21 4 -5 1 -5 -6 -1 -9 6 -10 11 -3 20
6 7 7 17 3 21 -4 5 -1 5 6 1 9 -6 10 -11 3 -20z m659 -16 c0 -5 -5 -10 -11
-10 -5 0 -7 5 -4 10 3 6 8 10 11 10 2 0 4 -4 4 -10z m425 -58 c-3 -3 -11 0
-18 7 -9 10 -8 11 6 5 10 -3 15 -9 12 -12z m625 -22 c0 -5 -5 -10 -11 -10 -5
0 -7 5 -4 10 3 6 8 10 11 10 2 0 4 -4 4 -10z m74 -118 c3 -5 -1 -9 -9 -9 -8 0
-12 4 -9 9 3 4 7 8 9 8 2 0 6 -4 9 -8z m-1783 -25 c-6 -8 -7 -18 -3 -22 4 -5
1 -5 -6 -1 -10 6 -10 11 -1 22 6 8 14 14 16 14 3 0 0 -6 -6 -13z m1817 -27 c7
-12 8 -20 2 -20 -5 0 -10 5 -10 11 0 5 -4 8 -8 5 -5 -3 -9 1 -9 9 0 21 10 19
25 -5z m-1149 -3 c8 -10 7 -14 -2 -14 -8 0 -14 6 -14 14 0 7 1 13 2 13 2 0 8
-6 14 -13z m11 -148 c0 -5 -4 -9 -8 -9 -5 0 -9 7 -9 15 0 8 4 12 9 9 4 -3 8
-9 8 -15z m10 -45 c0 -2 -7 -4 -15 -4 -8 0 -15 4 -15 10 0 5 7 7 15 4 8 -4 15
-8 15 -10z m-689 -18 c-6 -7 -7 -17 -3 -21 4 -5 1 -5 -6 -1 -9 6 -10 11 -3 20
6 7 7 17 3 21 -4 5 -1 5 6 1 9 -6 10 -11 3 -20z m1316 -11 c0 -8 -4 -12 -9 -9
-5 3 -6 10 -3 15 9 13 12 11 12 -6z m693 -159 c0 -3 -4 -8 -10 -11 -5 -3 -10
-1 -10 4 0 6 5 11 10 11 6 0 10 -2 10 -4z m-2009 -69 c-6 -8 -7 -18 -3 -22 4
-5 1 -5 -6 -1 -10 6 -10 11 -1 22 6 8 14 14 16 14 3 0 0 -6 -6 -13z m1447 -22
c-3 -3 -9 2 -12 12 -6 14 -5 15 5 6 7 -7 10 -15 7 -18z m116 -173 c3 -5 -1 -9
-9 -9 -8 0 -12 4 -9 9 3 4 7 8 9 8 2 0 6 -4 9 -8z m-1563 -46 c-6 -7 -7 -17
-3 -21 4 -5 1 -5 -6 -1 -9 6 -10 11 -3 20 6 7 7 17 3 21 -4 5 -1 5 6 1 9 -6
10 -11 3 -20z m719 -20 c0 -2 -8 -10 -17 -17 -16 -13 -17 -12 -4 4 13 16 21
21 21 13z m890 -46 c0 -5 -2 -10 -4 -10 -3 0 -8 5 -11 10 -3 6 -1 10 4 10 6 0
11 -4 11 -10z m537 -5 c0 -8 -4 -12 -9 -9 -5 3 -6 10 -3 15 9 13 12 11 12 -6z
m-460 -27 c0 -13 -1 -17 -4 -10 -3 6 -10 9 -16 5 -7 -4 -6 1 2 10 17 21 17 21
18 -5z m240 -10 c-3 -8 -6 -5 -6 6 -1 11 2 17 5 13 3 -3 4 -12 1 -19z m147 6
c3 -8 2 -12 -4 -9 -6 3 -10 10 -10 16 0 14 7 11 14 -7z m-1344 -74 c0 -5 -5
-10 -11 -10 -5 0 -7 5 -4 10 3 6 8 10 11 10 2 0 4 -4 4 -10z m-729 -63 c-6 -8
-7 -18 -3 -22 4 -5 1 -5 -6 -1 -10 6 -10 11 -1 22 6 8 14 14 16 14 3 0 0 -6
-6 -13z m0 -241 c-6 -7 -7 -17 -3 -21 4 -5 1 -5 -6 -1 -9 6 -10 11 -3 20 6 7
7 17 3 21 -4 5 -1 5 6 1 9 -6 10 -11 3 -20z m0 -239 c-6 -8 -7 -18 -3 -22 4
-5 1 -5 -6 -1 -10 6 -10 11 -1 22 6 8 14 14 16 14 3 0 0 -6 -6 -13z m759 -17
c0 -5 -5 -10 -11 -10 -5 0 -7 5 -4 10 3 6 8 10 11 10 2 0 4 -4 4 -10z m10 -46
c0 -2 -7 -4 -15 -4 -8 0 -15 4 -15 10 0 5 7 7 15 4 8 -4 15 -8 15 -10z m-769
-178 c-6 -7 -7 -17 -3 -21 4 -5 1 -5 -6 -1 -9 6 -10 11 -3 20 6 7 7 17 3 21
-4 5 -1 5 6 1 9 -6 10 -11 3 -20z m0 -239 c-6 -8 -7 -18 -3 -22 4 -5 1 -5 -6
-1 -10 6 -10 11 -1 22 6 8 14 14 16 14 3 0 0 -6 -6 -13z m0 -241 c-6 -7 -7
-17 -3 -21 4 -5 1 -5 -6 -1 -9 6 -10 11 -3 20 6 7 7 17 3 21 -4 5 -1 5 6 1 9
-6 10 -11 3 -20z m804 -26 c3 -6 -1 -7 -9 -4 -18 7 -21 14 -7 14 6 0 13 -4 16
-10z m-804 -294 c-6 -7 -7 -17 -3 -21 4 -5 1 -5 -6 -1 -9 6 -10 11 -3 20 6 7
7 17 3 21 -4 5 -1 5 6 1 9 -6 10 -11 3 -20z m823 -42 c3 -8 2 -12 -4 -9 -6 3
-10 10 -10 16 0 14 7 11 14 -7z m-823 -197 c-6 -8 -7 -18 -3 -22 4 -5 1 -5 -6
-1 -10 6 -10 11 -1 22 6 8 14 14 16 14 3 0 0 -6 -6 -13z m844 -97 c-3 -5 -12
-10 -18 -10 -7 0 -6 4 3 10 19 12 23 12 15 0z m5 -44 c0 -2 -8 -10 -17 -17
-16 -13 -17 -12 -4 4 13 16 21 21 21 13z m-849 -100 c-6 -7 -7 -17 -3 -21 4
-5 1 -5 -6 -1 -9 6 -10 11 -3 20 6 7 7 17 3 21 -4 5 -1 5 6 1 9 -6 10 -11 3
-20z m846 9 c0 -8 -4 -12 -9 -9 -5 3 -6 10 -3 15 9 13 12 11 12 -6z m-845
-167 c-15 -15 -16 -31 0 -22 7 5 8 3 3 -5 -5 -9 -10 -10 -18 -2 -10 10 6 41
21 41 3 0 1 -5 -6 -12z m619 -25 c13 -16 12 -17 -3 -4 -10 7 -18 15 -18 17 0
8 8 3 21 -13z m-501 -13 c12 -7 10 -9 -8 -7 -12 0 -22 5 -22 9 0 11 12 10 30
-2z"/>
<path d="M5153 4815 c0 -8 4 -12 9 -9 5 3 6 10 3 15 -9 13 -12 11 -12 -6z"/>
<path d="M5223 4383 c4 -3 1 -13 -6 -22 -11 -14 -10 -14 5 -2 16 12 16 31 1
31 -4 0 -3 -3 0 -7z"/>
<path d="M4430 4156 c7 -7 13 -7 20 0 6 6 3 10 -10 10 -13 0 -16 -4 -10 -10z"/>
<path d="M4520 4161 c0 -6 4 -13 10 -16 6 -3 7 1 4 9 -7 18 -14 21 -14 7z"/>
<path d="M4776 4153 c-6 -14 -5 -15 5 -6 7 7 10 15 7 18 -3 3 -9 -2 -12 -12z"/>
<path d="M1470 5408 c0 -9 -4 -20 -10 -23 -6 -3 -7 1 -4 9 5 12 0 16 -20 16
-14 0 -26 -5 -26 -11 0 -5 4 -8 8 -5 5 3 9 -1 9 -8 0 -8 -8 -11 -21 -8 -20 4
-20 4 -2 -10 15 -12 16 -17 6 -23 -9 -6 -11 -4 -5 6 5 8 4 11 -1 6 -5 -5 -9
-26 -10 -48 0 -29 4 -39 15 -40 14 0 14 -1 1 -7 -8 -4 -16 -15 -16 -24 -1 -10
2 -15 7 -12 5 3 9 0 9 -5 0 -6 -4 -11 -9 -11 -6 0 -9 -9 -8 -19 0 -11 6 -17
12 -13 5 3 4 -2 -4 -11 -12 -15 -11 -17 5 -18 15 0 16 -2 4 -7 -8 -4 -16 -17
-16 -29 -2 -26 6 -29 26 -10 12 10 12 9 2 -4 -6 -9 -8 -20 -4 -24 4 -5 1 -5
-5 -1 -7 4 -13 4 -14 -1 -5 -42 -5 -62 2 -58 4 3 9 -1 12 -9 3 -7 15 -16 27
-19 15 -4 20 -2 17 7 -7 17 24 15 38 -1 8 -10 16 -10 38 2 15 8 25 10 22 5 -4
-6 -2 -10 4 -10 5 0 12 6 14 13 4 8 8 9 14 1 4 -6 22 -10 40 -10 26 1 29 3 20
15 -10 12 -9 13 1 7 19 -11 122 -14 122 -4 0 5 4 7 9 4 14 -9 42 5 34 17 -3 6
-1 7 6 3 8 -5 9 -12 2 -20 -7 -8 -4 -12 10 -12 12 0 18 5 15 13 -3 7 -1 13 5
13 5 0 12 -7 15 -15 4 -8 10 -12 16 -9 5 3 4 13 -4 22 -11 15 -10 15 14 -1 32
-20 45 -22 30 -4 -8 10 -6 13 7 13 11 0 17 -6 14 -12 -3 -8 2 -11 16 -7 11 3
18 9 15 14 -3 5 2 6 10 3 9 -3 13 -11 9 -18 -4 -7 -2 -7 8 1 12 10 18 10 29 0
10 -10 11 -9 5 2 -6 11 -2 13 21 8 19 -3 33 0 42 11 7 10 11 12 8 6 -3 -7 1
-15 10 -18 11 -4 15 -2 11 7 -5 14 7 14 76 3 15 -2 27 0 27 5 0 5 5 9 11 9 5
0 8 -4 5 -8 -3 -5 2 -9 10 -9 8 0 13 6 10 13 -3 8 0 11 9 7 8 -3 13 -8 10 -12
-2 -4 2 -8 10 -8 18 0 19 9 3 27 -11 12 -10 12 3 2 9 -6 20 -8 24 -4 5 4 6 2
3 -3 -4 -6 16 -10 53 -10 32 0 59 3 59 8 0 4 -5 5 -12 1 -7 -5 -8 -3 -4 5 6 9
12 8 26 -4 14 -12 20 -13 26 -4 5 8 3 10 -7 4 -8 -5 -10 -4 -6 0 13 15 39 15
33 0 -4 -11 0 -12 17 -6 12 5 30 7 39 6 10 -2 22 4 28 13 9 16 9 16 10 1 0
-11 8 -16 24 -15 17 1 21 5 15 12 -6 8 -2 10 16 6 14 -2 25 -9 25 -15 0 -6 7
-2 16 9 8 10 13 14 10 8 -3 -6 1 -11 9 -11 8 0 12 4 9 9 -3 4 2 8 11 8 9 0 14
-4 11 -8 -6 -11 51 -9 61 2 5 5 2 6 -7 1 -8 -5 -12 -4 -7 0 12 14 40 15 56 2
12 -10 14 -9 8 8 -6 17 -5 18 5 5 17 -20 61 -23 54 -4 -4 11 0 10 19 -2 15
-10 25 -12 25 -5 0 6 -4 11 -10 11 -5 0 -10 5 -10 12 0 6 10 2 23 -9 12 -11
30 -23 40 -26 9 -4 17 -11 17 -17 0 -6 -4 -9 -8 -6 -12 7 -10 -78 2 -86 7 -5
4 -8 -6 -8 -10 0 -18 -4 -18 -10 0 -5 8 -6 18 -3 14 6 15 4 4 -9 -15 -19 -21
-86 -10 -110 5 -11 5 -18 -1 -18 -7 0 -7 -9 -1 -26 6 -15 6 -23 1 -19 -5 3
-13 0 -17 -6 -4 -7 -3 -9 4 -5 6 3 13 2 17 -4 3 -5 1 -10 -4 -10 -6 0 -11 -7
-11 -15 0 -9 6 -12 18 -9 14 5 14 4 2 -5 -8 -5 -11 -13 -7 -17 4 -4 1 -14 -5
-22 -19 -22 -18 -44 0 -59 16 -12 15 -13 -2 -6 -18 6 -18 5 0 -23 13 -20 14
-25 4 -17 -13 10 -15 6 -15 -25 1 -19 7 -38 13 -40 7 -2 12 -8 12 -13 0 -6 -4
-7 -10 -4 -5 3 -10 1 -10 -5 0 -6 -4 -9 -8 -6 -4 2 -8 -4 -8 -14 0 -18 1 -18
20 -2 14 12 17 12 9 2 -6 -9 -10 -27 -9 -42 2 -20 0 -25 -13 -20 -14 5 -14 3
-2 -11 7 -9 9 -17 4 -17 -6 0 -9 -17 -8 -37 1 -21 -3 -44 -9 -52 -8 -11 -8
-13 1 -8 6 4 14 3 18 -3 3 -5 0 -10 -7 -10 -8 -1 -5 -7 7 -17 16 -12 16 -14 3
-10 -10 3 -20 2 -23 -3 -4 -6 2 -10 11 -10 16 0 16 -1 -2 -16 -10 -8 -14 -13
-8 -10 7 3 14 -1 17 -9 4 -9 1 -12 -9 -8 -7 3 -14 0 -14 -6 0 -11 15 -15 35
-11 6 1 6 -2 2 -7 -5 -4 -13 -9 -18 -9 -22 -3 -23 -5 -9 -14 13 -9 13 -11 0
-20 -13 -9 -13 -10 0 -10 13 0 13 -2 1 -9 -11 -7 -10 -10 5 -14 17 -4 17 -5 1
-6 -10 0 -15 -6 -12 -11 4 -6 12 -8 18 -4 7 3 4 -1 -5 -9 -22 -17 -11 -32 11
-14 14 11 14 10 2 -5 -7 -10 -17 -15 -22 -12 -5 3 -9 0 -9 -5 0 -6 5 -11 10
-11 6 0 10 -5 10 -11 0 -5 -5 -7 -12 -3 -8 5 -9 2 -5 -9 3 -10 2 -17 -2 -17
-11 0 -2 -40 12 -58 7 -9 5 -11 -9 -5 -17 6 -18 5 -4 -12 9 -11 10 -16 3 -11
-7 4 -13 3 -13 -3 0 -5 6 -11 13 -14 8 -3 6 -10 -8 -22 -11 -9 -14 -13 -6 -9
11 5 13 3 8 -9 -3 -9 -1 -19 5 -23 7 -5 8 -2 3 6 -5 9 -4 11 3 6 17 -10 15
-15 -10 -26 -23 -9 -23 -9 2 -10 22 -1 23 -2 6 -9 -11 -4 -20 -17 -21 -29 -1
-11 2 -19 7 -16 4 3 8 1 8 -5 0 -5 -4 -13 -10 -16 -6 -4 -5 -13 2 -25 7 -10
16 -16 22 -13 5 3 6 1 2 -6 -6 -9 -11 -9 -22 0 -9 7 -14 8 -14 1 0 -6 5 -14
10 -17 6 -3 10 -14 10 -23 0 -12 -2 -14 -8 -4 -5 7 -8 -4 -8 -28 0 -22 4 -40
8 -40 4 0 8 -5 8 -11 0 -5 -6 -7 -12 -3 -7 4 -10 4 -6 -1 4 -4 2 -15 -5 -23
-7 -10 -8 -13 -1 -9 7 4 14 -2 17 -14 4 -15 2 -18 -7 -10 -8 7 -11 4 -11 -13
1 -12 5 -27 9 -34 4 -7 3 -12 -3 -12 -5 0 -8 -8 -6 -17 2 -10 4 -33 4 -51 1
-23 5 -31 14 -27 6 4 3 -2 -8 -12 -11 -10 -18 -17 -16 -16 2 2 10 -2 17 -8 10
-8 11 -16 3 -30 -5 -11 -7 -24 -4 -29 3 -5 0 -12 -6 -16 -8 -4 -9 -3 -5 4 4 7
3 12 -3 12 -13 0 -8 -49 9 -80 12 -23 12 -24 -3 -12 -14 12 -16 11 -14 -7 0
-11 6 -17 12 -13 5 3 4 -2 -4 -11 -12 -15 -11 -17 5 -18 15 0 16 -2 4 -7 -19
-8 -19 -38 -1 -34 8 1 10 -2 4 -10 -4 -7 -8 -16 -8 -20 0 -3 -4 -10 -9 -15 -5
-5 -6 -2 -1 6 5 9 4 12 -2 8 -9 -6 -9 -53 0 -119 2 -16 1 -28 -2 -28 -4 0 -7
-17 -6 -37 0 -21 -2 -42 -4 -48 -9 -17 -8 -96 1 -101 4 -3 8 -10 8 -15 0 -6
-6 -7 -12 -3 -8 5 -7 0 2 -11 9 -11 10 -16 3 -11 -7 4 -13 2 -13 -3 0 -6 5
-11 11 -11 6 0 7 -5 2 -12 -4 -7 -8 -24 -8 -38 0 -14 -4 -31 -9 -39 -6 -10 -5
-12 2 -7 14 8 14 0 2 -29 -5 -13 -3 -26 8 -37 12 -15 13 -18 1 -23 -10 -4 -14
-23 -13 -73 1 -37 3 -71 4 -77 5 -20 0 -36 -10 -30 -5 3 -10 1 -10 -4 0 -11
15 -15 34 -12 5 1 4 -5 -4 -13 -15 -19 -24 -21 -14 -4 4 7 3 8 -5 4 -9 -6 -9
-11 0 -22 9 -11 8 -14 -2 -14 -11 0 -11 -2 1 -10 13 -9 13 -10 0 -11 -10 0 -8
-3 5 -9 14 -6 15 -9 5 -9 -10 -1 -16 -10 -16 -26 0 -28 5 -31 26 -12 8 6 4 0
-8 -14 -15 -17 -20 -29 -13 -34 6 -3 11 -11 11 -16 0 -6 -4 -8 -9 -5 -16 10
-20 -34 -4 -49 12 -12 12 -15 1 -15 -15 0 -18 -54 -4 -67 5 -5 6 -2 1 6 -6 10
-4 12 5 6 11 -7 10 -10 -1 -19 -20 -16 -17 -51 4 -50 9 1 14 -2 11 -7 -3 -5
-12 -9 -20 -9 -8 0 -14 -5 -14 -11 0 -5 4 -7 10 -4 12 7 2 -23 -14 -44 -8 -11
-8 -13 2 -7 13 8 17 -6 5 -18 -10 -10 -11 -96 -1 -96 4 0 8 -5 8 -11 0 -5 -4
-8 -8 -5 -11 6 -9 -25 3 -43 5 -10 4 -12 -3 -7 -7 4 -12 2 -12 -3 0 -6 4 -11
9 -11 5 0 8 -11 7 -24 0 -16 -5 -21 -11 -16 -7 6 -10 -2 -9 -23 3 -48 3 -49
17 -42 6 4 5 1 -3 -7 -11 -9 -15 -32 -14 -83 0 -38 -3 -78 -8 -87 -6 -12 -3
-20 9 -27 17 -10 17 -10 -1 -11 -20 0 -20 0 0 -15 11 -9 13 -13 4 -10 -12 4
-15 -5 -15 -43 0 -27 6 -56 14 -66 12 -14 12 -16 0 -11 -10 4 -15 -1 -15 -15
0 -11 5 -20 11 -20 5 0 3 -5 -5 -10 -8 -5 -10 -10 -4 -10 6 0 11 -6 11 -14 0
-8 -5 -12 -11 -10 -11 4 -14 -121 -3 -132 3 -3 2 -18 -3 -34 -5 -18 -4 -32 3
-40 9 -10 8 -12 -3 -8 -20 7 -20 -46 -1 -82 12 -21 12 -23 0 -13 -12 9 -14 5
-14 -23 0 -19 4 -34 8 -34 5 0 5 -6 0 -13 -11 -16 -11 -58 0 -81 6 -13 6 -16
-2 -12 -6 4 -11 1 -12 -6 0 -7 -2 -25 -3 -40 -1 -14 2 -24 6 -22 3 2 9 0 13
-6 3 -5 -1 -10 -9 -10 -10 0 -13 -6 -10 -15 4 -8 11 -12 18 -9 6 3 4 0 -4 -8
-16 -14 -24 -72 -9 -62 14 8 11 -10 -3 -24 -10 -10 -10 -14 0 -21 7 -4 10 -15
6 -24 -3 -9 -11 -14 -18 -10 -6 4 -5 -1 3 -10 9 -12 10 -17 2 -17 -7 0 -9 -5
-6 -10 4 -6 11 -7 17 -4 7 4 8 2 4 -5 -4 -6 -12 -9 -17 -6 -5 4 -9 1 -9 -4 0
-6 5 -11 10 -11 6 0 10 -5 10 -11 0 -5 -4 -8 -8 -5 -5 3 -9 -1 -9 -9 0 -8 4
-12 9 -9 4 3 8 0 8 -5 0 -6 -5 -11 -11 -11 -5 0 -7 -5 -4 -10 4 -6 10 -8 15
-5 5 3 12 0 16 -6 4 -7 3 -9 -3 -6 -6 4 -17 -1 -24 -10 -10 -12 -10 -14 -1 -9
6 4 12 2 12 -3 0 -6 -6 -11 -12 -11 -9 0 -8 -3 2 -9 8 -6 19 -7 25 -4 5 4 7 3
3 -2 -4 -4 -2 -15 4 -24 8 -10 4 -9 -10 3 -12 11 -25 16 -29 13 -3 -4 -1 -7 6
-7 7 0 9 -5 6 -10 -4 -6 -3 -10 2 -9 4 1 10 1 13 -1 3 -1 31 -2 62 -3 39 -2
55 1 50 8 -4 6 0 4 8 -5 8 -9 25 -16 37 -16 15 0 19 4 13 10 -6 6 -10 14 -10
20 0 5 8 0 18 -11 16 -18 86 -28 75 -11 -2 5 1 8 6 8 6 0 11 -4 11 -10 0 -5 5
-10 11 -10 5 0 7 6 3 13 -5 7 0 6 11 -3 17 -14 18 -13 11 4 -7 19 -6 19 13 2
17 -15 23 -16 36 -6 10 8 15 9 15 1 0 -6 5 -11 11 -11 5 0 8 4 5 8 -2 4 8 8
24 7 15 0 26 -3 23 -7 -5 -9 -1 -10 104 -12 44 0 79 2 76 7 -6 9 11 9 21 -1
10 -10 156 -10 150 0 -3 5 -10 6 -15 3 -5 -4 -17 -1 -26 5 -12 7 -13 10 -3 7
22 -6 49 10 46 28 -1 9 -5 15 -9 15 -4 0 -10 0 -13 0 -4 0 0 -8 7 -17 13 -17
12 -17 -5 -3 -18 14 -18 15 0 30 19 15 30 65 13 54 -5 -3 -9 -2 -10 3 0 4 -2
16 -4 25 -2 12 2 15 13 10 15 -5 16 -4 2 13 -9 11 -10 16 -2 11 6 -4 12 -2 12
3 0 6 -4 11 -10 11 -5 0 -10 5 -10 11 0 5 4 8 8 5 5 -3 9 1 9 9 0 8 -4 12 -9
9 -4 -3 -8 0 -8 5 0 6 3 11 8 11 4 0 7 27 7 59 0 33 -3 57 -6 55 -4 -2 -10 3
-13 11 -3 9 1 18 9 21 8 4 12 10 9 15 -3 5 -10 6 -16 3 -7 -4 -8 -2 -4 5 4 6
12 9 17 6 5 -4 9 -1 9 4 0 6 -4 11 -10 11 -5 0 -10 5 -10 11 0 5 6 7 13 3 10
-6 10 -4 0 7 -7 7 -13 17 -13 22 0 4 6 5 13 1 8 -5 8 -2 -2 9 -11 14 -11 17 0
18 8 0 5 4 -6 9 -18 8 -18 9 -2 9 10 1 15 6 12 11 -4 6 -12 8 -18 4 -7 -3 -5
0 4 8 17 15 20 114 3 111 -5 -1 -10 7 -10 17 0 15 3 16 14 8 10 -9 12 -8 10 3
-2 8 -7 17 -13 21 -7 5 -7 8 0 8 6 0 10 23 10 52 -1 29 -6 52 -11 51 -5 -1
-10 7 -10 17 0 15 3 16 14 8 10 -9 12 -8 10 3 -2 8 -7 17 -13 21 -7 5 -7 8 0
8 6 0 10 23 10 53 -1 28 -6 51 -11 50 -5 -1 -10 7 -10 17 0 15 3 16 14 8 10
-9 12 -8 10 3 -2 8 -7 17 -13 21 -7 5 -7 8 0 8 6 0 10 23 10 53 -1 28 -6 51
-11 50 -5 -1 -10 7 -10 17 0 13 4 16 11 10 8 -7 12 -5 12 5 0 8 -5 15 -11 15
-7 0 -7 3 -1 8 13 9 16 42 4 42 -5 0 -9 5 -9 11 0 5 6 7 13 3 9 -6 9 -4 0 7
-16 16 -17 33 -2 23 6 -3 3 6 -7 22 -16 24 -16 27 -2 16 14 -11 16 -11 13 5
-1 10 -9 17 -16 15 -11 -2 -10 1 1 10 16 14 24 61 9 52 -5 -3 -9 -2 -10 3 0 4
-2 16 -4 25 -2 12 2 15 13 10 15 -5 16 -4 2 13 -9 11 -10 16 -2 11 6 -4 12 -2
12 3 0 6 -4 11 -10 11 -5 0 -10 5 -10 11 0 5 4 8 8 5 5 -3 9 1 9 9 0 8 -4 12
-9 9 -4 -3 -8 0 -8 5 0 6 3 11 8 11 4 0 7 27 7 59 0 33 -3 57 -6 55 -4 -2 -10
3 -13 11 -3 9 1 18 9 21 8 4 12 10 9 15 -3 5 -10 6 -16 3 -7 -4 -8 -2 -4 5 4
6 12 9 17 6 5 -4 9 -1 9 4 0 6 -4 11 -10 11 -5 0 -10 5 -10 11 0 5 6 7 13 3 9
-6 9 -4 0 7 -17 17 -17 32 0 23 8 -5 8 -2 -2 9 -11 14 -11 17 0 18 8 0 5 4 -6
9 -18 8 -18 9 -2 9 10 1 15 6 12 11 -4 6 -12 8 -18 4 -7 -3 -5 0 4 8 17 15 20
114 3 111 -5 -1 -10 7 -10 17 0 15 3 16 14 8 10 -9 12 -8 10 3 -2 8 -7 17 -13
21 -7 5 -7 8 0 8 6 0 10 23 10 52 -1 29 -6 52 -11 51 -5 -1 -10 7 -10 17 0 13
4 16 11 10 8 -7 12 -5 12 5 0 8 -5 15 -11 15 -7 0 -7 3 -1 8 13 9 16 42 4 42
-5 0 -9 5 -9 11 0 5 6 7 13 3 10 -6 10 -4 0 7 -16 16 -17 33 -2 23 6 -3 3 6
-7 22 -16 24 -16 27 -2 16 14 -11 16 -11 13 5 -1 10 -9 17 -16 15 -11 -2 -10
1 1 10 16 14 24 61 9 52 -5 -3 -9 -2 -10 3 0 4 -2 16 -4 25 -2 12 2 15 13 10
15 -5 16 -4 2 13 -9 11 -10 16 -2 11 6 -4 12 -2 12 3 0 6 -4 11 -10 11 -5 0
-10 5 -10 11 0 5 4 8 8 5 5 -3 9 1 9 9 0 8 -4 12 -9 9 -4 -3 -8 0 -8 5 0 6 3
11 8 11 4 0 7 27 7 59 0 33 -3 57 -6 55 -4 -2 -10 3 -13 11 -3 9 1 18 9 21 8
4 12 10 9 15 -3 5 -10 6 -16 3 -7 -4 -8 -2 -4 5 4 6 12 9 17 6 5 -4 9 -1 9 4
0 6 -4 11 -10 11 -5 0 -10 5 -10 11 0 5 6 7 13 3 10 -6 10 -4 0 7 -7 7 -13 17
-13 22 0 4 6 5 13 1 8 -5 8 -2 -2 9 -11 14 -11 17 0 18 8 0 5 4 -6 9 -18 8
-18 9 -2 9 10 1 15 6 12 11 -4 6 -12 8 -18 4 -7 -3 -5 0 4 8 17 15 20 114 3
111 -5 -1 -10 7 -10 17 0 15 3 16 14 8 10 -9 12 -8 10 3 -2 8 -7 17 -13 21 -7
5 -7 8 0 8 6 0 10 23 10 53 -1 28 -6 51 -11 50 -5 -1 -10 7 -10 17 0 13 4 16
11 10 8 -7 12 -5 12 5 0 8 -5 15 -11 15 -7 0 -7 3 -1 8 13 9 16 42 4 42 -5 0
-9 5 -9 11 0 5 6 7 13 3 10 -6 10 -4 0 7 -16 16 -17 33 -2 23 6 -3 3 6 -7 22
-16 24 -16 27 -2 16 14 -11 16 -11 13 5 -1 10 -9 17 -16 15 -11 -2 -10 1 1 10
16 14 24 61 9 52 -5 -3 -9 -2 -10 3 0 4 -2 16 -4 25 -2 12 2 15 13 10 15 -5
16 -4 2 13 -9 11 -10 16 -2 11 6 -4 12 -2 12 3 0 6 -4 11 -10 11 -5 0 -10 5
-10 11 0 5 4 8 8 5 5 -3 9 1 9 9 0 8 -4 12 -9 9 -4 -3 -8 0 -8 5 0 6 3 11 8
11 4 0 7 27 7 59 0 33 -3 57 -6 55 -4 -2 -10 3 -13 11 -3 9 1 18 9 21 8 4 12
10 9 15 -3 5 -10 6 -16 3 -7 -4 -8 -2 -4 5 4 6 12 9 17 6 5 -4 9 -1 9 4 0 6
-4 11 -10 11 -5 0 -10 5 -10 11 0 5 6 7 13 3 10 -6 10 -4 0 7 -7 7 -13 17 -13
22 0 4 6 5 13 1 8 -5 8 -2 -2 9 -11 14 -11 17 0 18 8 0 5 4 -6 9 -18 8 -18 9
-2 9 10 1 15 6 12 11 -4 6 -12 8 -18 4 -7 -3 -5 0 4 8 17 15 20 114 3 111 -5
-1 -10 7 -10 17 0 15 3 16 14 8 10 -9 12 -8 10 3 -2 8 -7 17 -13 21 -7 5 -7 8
0 8 6 0 10 23 10 53 -1 28 -6 51 -11 50 -5 -1 -10 7 -10 17 0 13 4 16 11 10 8
-7 12 -5 12 5 0 8 -5 15 -11 15 -7 0 -7 3 -1 8 13 9 16 42 4 42 -5 0 -9 5 -9
11 0 5 6 7 13 3 10 -6 10 -4 0 7 -16 16 -17 33 -2 23 6 -3 3 6 -7 22 -16 24
-16 27 -2 16 14 -11 16 -11 13 5 -1 10 -9 17 -16 15 -11 -2 -10 1 1 10 16 14
24 61 9 52 -5 -3 -9 -2 -10 3 0 4 -2 16 -4 25 -2 12 2 15 13 10 15 -5 16 -4 2
13 -9 11 -10 16 -2 11 6 -4 12 -2 12 3 0 6 -4 11 -10 11 -5 0 -10 5 -10 11 0
5 4 8 8 5 5 -3 9 1 9 9 0 8 -4 12 -9 9 -4 -3 -8 0 -8 5 0 6 3 11 8 11 4 0 7
27 7 59 0 33 -3 57 -6 55 -4 -2 -10 3 -13 11 -3 9 1 18 9 21 8 4 12 10 9 15
-3 5 -10 6 -16 3 -7 -4 -8 -2 -4 5 4 6 12 9 17 6 5 -4 9 -1 9 4 0 6 -4 11 -10
11 -5 0 -10 5 -10 11 0 5 6 7 13 3 10 -6 10 -4 0 7 -7 7 -13 17 -13 22 0 4 6
5 13 1 8 -5 8 -2 -2 9 -11 14 -11 17 0 18 8 0 5 4 -6 9 -18 8 -18 9 -2 9 10 1
15 6 12 11 -4 6 -12 8 -18 4 -7 -3 -4 1 5 9 22 17 11 32 -11 14 -14 -11 -14
-10 -2 5 7 10 17 15 22 12 5 -3 9 0 9 5 0 6 -4 11 -10 11 -5 0 -10 5 -10 11 0
5 6 7 13 3 10 -6 10 -4 0 7 -16 16 -17 33 -2 23 6 -3 3 6 -7 22 -16 24 -16 27
-2 16 14 -11 16 -11 13 5 -1 10 -9 17 -16 15 -11 -2 -10 1 1 10 16 14 24 61 9
52 -5 -3 -9 -2 -10 3 0 4 -2 16 -4 25 -2 12 2 15 13 10 15 -5 16 -4 2 13 -9
11 -10 16 -2 11 6 -4 12 -2 12 3 0 6 -4 11 -10 11 -5 0 -10 5 -10 11 0 5 4 8
8 5 5 -3 9 1 9 9 0 8 -4 12 -9 9 -4 -3 -8 0 -8 5 0 6 5 11 10 11 15 0 7 24
-10 32 -12 5 -11 7 3 7 10 1 15 6 12 11 -4 6 -12 8 -18 4 -7 -3 -5 0 3 8 8 7
16 20 18 28 3 10 -3 9 -19 -5 l-22 -20 14 23 c8 12 18 22 24 22 5 0 4 4 -4 9
-18 12 -24 41 -7 35 8 -3 12 6 12 26 0 33 -5 36 -26 18 -8 -7 -6 -3 5 10 23
28 27 68 9 83 -8 6 -11 15 -8 20 3 5 0 9 -5 9 -15 0 -14 -13 2 -30 10 -12 9
-12 -5 -1 -9 7 -23 9 -30 5 -10 -6 -11 -5 -1 7 11 14 7 15 -32 9 -25 -4 -45
-3 -45 2 0 4 -4 8 -10 8 -5 0 -7 -8 -3 -17 5 -15 3 -14 -10 2 l-16 20 -1 -20
c0 -15 -2 -17 -9 -6 -10 16 -111 23 -111 7 0 -6 -4 -6 -11 1 -7 7 -21 8 -40 3
-17 -5 -29 -5 -29 1 0 5 -4 9 -10 9 -5 0 -7 -8 -3 -17 5 -15 3 -14 -10 2 l-16
20 -1 -20 c0 -15 -2 -17 -9 -6 -10 16 -111 23 -111 7 0 -6 -4 -6 -11 1 -7 7
-21 8 -40 3 -17 -5 -29 -5 -29 1 0 5 -4 9 -10 9 -5 0 -7 -8 -3 -17 5 -15 3
-14 -10 2 l-16 20 -1 -20 c0 -15 -2 -17 -9 -6 -10 16 -111 23 -111 7 0 -6 -4
-6 -11 1 -7 7 -21 8 -40 3 -17 -5 -29 -5 -29 1 0 5 -4 9 -10 9 -5 0 -7 -8 -3
-17 5 -15 3 -14 -10 2 l-16 20 -1 -20 c0 -15 -2 -17 -9 -6 -8 13 -111 24 -111
11 0 -3 -18 -5 -40 -5 -22 0 -40 3 -40 8 0 4 -4 7 -10 7 -5 0 -7 -8 -3 -17 5
-15 3 -14 -10 2 l-16 20 -1 -20 c0 -15 -2 -17 -9 -6 -10 16 -111 23 -111 7 0
-6 -4 -6 -11 1 -7 7 -21 8 -40 3 -17 -5 -29 -5 -29 1 0 5 -4 9 -10 9 -5 0 -7
-8 -3 -17 5 -15 3 -14 -10 2 l-16 20 -1 -20 c0 -15 -2 -17 -9 -6 -10 16 -111
23 -111 7 0 -6 -4 -6 -11 1 -7 7 -21 8 -40 3 -16 -5 -29 -5 -29 0 0 8 -136 4
-151 -6 -5 -3 -9 0 -9 5 0 6 -4 11 -10 11 -5 0 -7 -8 -3 -17 5 -15 3 -14 -10
2 l-16 20 -1 -20 c0 -15 -2 -17 -9 -6 -10 16 -111 23 -111 7 0 -6 -4 -6 -11 1
-7 7 -21 8 -40 3 -17 -5 -29 -5 -29 1 0 5 -4 9 -10 9 -5 0 -7 -8 -3 -17 5 -15
3 -14 -10 2 l-16 20 -1 -20 c0 -15 -2 -17 -9 -6 -9 14 -91 22 -91 9 0 -5 5 -8
12 -8 6 0 8 -3 4 -7 -4 -5 -14 1 -22 11 -12 17 -14 17 -14 4z m270 -2 c0 -2
-8 -10 -17 -17 -16 -13 -17 -12 -4 4 13 16 21 21 21 13z m225 -5 c-9 -8 -36
-10 -30 -2 2 4 11 8 20 8 8 0 13 -3 10 -6z m175 5 c0 -2 -8 -10 -17 -17 -16
-13 -17 -12 -4 4 13 16 21 21 21 13z m240 0 c0 -2 -8 -10 -17 -17 -16 -13 -17
-12 -4 4 13 16 21 21 21 13z m480 0 c0 -2 -8 -10 -17 -17 -16 -13 -17 -12 -4
4 13 16 21 21 21 13z m240 0 c0 -2 -8 -10 -17 -17 -16 -13 -17 -12 -4 4 13 16
21 21 21 13z m240 0 c0 -2 -8 -10 -17 -17 -16 -13 -17 -12 -4 4 13 16 21 21
21 13z m257 -40 c0 -8 -6 -12 -15 -9 -11 5 -11 7 0 14 7 5 13 9 14 9 0 0 1 -6
1 -14z m-607 -270 c0 -3 -4 -8 -10 -11 -5 -3 -10 -1 -10 4 0 6 5 11 10 11 6 0
10 -2 10 -4z m-315 -16 c3 -6 -1 -7 -9 -4 -18 7 -21 14 -7 14 6 0 13 -4 16
-10z m-145 -10 c0 -5 -5 -10 -11 -10 -5 0 -7 5 -4 10 3 6 8 10 11 10 2 0 4 -4
4 -10z m-1110 -31 c0 -5 -4 -9 -8 -9 -5 0 -9 7 -9 15 0 8 4 12 9 9 4 -3 8 -9
8 -15z m793 14 c-7 -2 -19 -2 -25 0 -7 3 -2 5 12 5 14 0 19 -2 13 -5z m-663
-27 c0 -2 -8 -10 -17 -17 -16 -13 -17 -12 -4 4 13 16 21 21 21 13z m77 -9 c0
-8 -6 -14 -14 -14 -9 0 -10 4 -2 14 6 7 12 13 14 13 1 0 2 -6 2 -13z m1386
-27 c3 -11 1 -18 -4 -14 -5 3 -9 12 -9 20 0 20 7 17 13 -6z m587 -34 c0 -2 -8
-10 -17 -17 -16 -13 -17 -12 -4 4 13 16 21 21 21 13z m-593 -121 c0 -8 -4 -12
-9 -9 -5 3 -6 10 -3 15 9 13 12 11 12 -6z m-12 -194 c3 -5 2 -12 -3 -15 -5 -3
-9 1 -9 9 0 17 3 19 12 6z m605 -85 c0 -2 -8 -10 -17 -17 -16 -13 -17 -12 -4
4 13 16 21 21 21 13z m-5 -65 c3 -5 2 -12 -3 -15 -5 -3 -9 1 -9 9 0 17 3 19
12 6z m-608 -181 c1 -11 -2 -20 -7 -20 -6 0 -7 17 -1 38 3 8 7 -1 8 -18z m613
6 c0 -2 -8 -10 -17 -17 -16 -13 -17 -12 -4 4 13 16 21 21 21 13z m-6 -475 c3
-5 -2 -15 -12 -22 -15 -12 -16 -12 -5 2 7 9 10 19 6 22 -3 4 -4 7 0 7 3 0 8
-4 11 -9z m-629 -119 c-3 -3 -11 0 -18 7 -9 10 -8 11 6 5 10 -3 15 -9 12 -12z
m635 -126 c0 -2 -8 -10 -17 -17 -16 -13 -17 -12 -4 4 13 16 21 21 21 13z m-5
-65 c3 -5 2 -12 -3 -15 -5 -3 -9 1 -9 9 0 17 3 19 12 6z m5 -175 c0 -2 -8 -10
-17 -17 -16 -13 -17 -12 -4 4 13 16 21 21 21 13z m-6 -475 c3 -5 -2 -15 -12
-22 -15 -12 -16 -12 -5 2 7 9 10 19 6 22 -3 4 -4 7 0 7 3 0 8 -4 11 -9z m-669
-80 c3 -5 2 -12 -3 -15 -5 -3 -9 1 -9 9 0 17 3 19 12 6z m-4 -38 c-10 -4 -10
-7 -1 -13 9 -5 8 -9 -3 -13 -13 -5 -16 5 -8 31 1 1 7 2 14 1 8 0 8 -2 -2 -6z
m-4 -85 c-3 -8 -6 -5 -6 6 -1 11 2 17 5 13 3 -3 4 -12 1 -19z m683 -42 c0 -2
-8 -10 -17 -17 -16 -13 -17 -12 -4 4 13 16 21 21 21 13z m-5 -65 c3 -5 2 -12
-3 -15 -5 -3 -9 1 -9 9 0 17 3 19 12 6z m-672 -46 c-3 -9 -8 -14 -10 -11 -3 3
-2 9 2 15 9 16 15 13 8 -4z m677 -129 c0 -2 -8 -10 -17 -17 -16 -13 -17 -12
-4 4 13 16 21 21 21 13z m-690 -16 c0 -5 -5 -10 -11 -10 -5 0 -7 5 -4 10 3 6
8 10 11 10 2 0 4 -4 4 -10z m-15 -380 c3 -6 -1 -7 -9 -4 -18 7 -21 14 -7 14 6
0 13 -4 16 -10z m699 -79 c3 -5 -2 -15 -12 -22 -15 -12 -16 -12 -5 2 7 9 10
19 6 22 -3 4 -4 7 0 7 3 0 8 -4 11 -9z m-704 -186 c0 -2 -6 -8 -13 -14 -10 -8
-14 -7 -14 2 0 8 6 14 14 14 7 0 13 -1 13 -2z m710 -59 c0 -2 -8 -10 -17 -17
-16 -13 -17 -12 -4 4 13 16 21 21 21 13z m-710 -50 c0 -2 -8 -10 -17 -17 -16
-13 -17 -12 -4 4 13 16 21 21 21 13z m705 -15 c3 -5 2 -12 -3 -15 -5 -3 -9 1
-9 9 0 17 3 19 12 6z m-725 -110 c0 -6 -4 -12 -8 -15 -5 -3 -9 1 -9 9 0 8 4
15 9 15 4 0 8 -4 8 -9z m730 -65 c0 -2 -8 -10 -17 -17 -16 -13 -17 -12 -4 4
13 16 21 21 21 13z m-734 -81 c1 -8 -1 -17 -5 -19 -4 -3 -7 6 -7 19 0 25 8 25
12 0z m4 -69 c0 -3 -4 -8 -10 -11 -5 -3 -10 -1 -10 4 0 6 5 11 10 11 6 0 10
-2 10 -4z m-23 -371 c0 -8 -4 -12 -9 -9 -5 3 -6 10 -3 15 9 13 12 11 12 -6z
m-6 -132 c13 -16 12 -17 -3 -4 -10 7 -18 15 -18 17 0 8 8 3 21 -13z m753 -142
c3 -5 -2 -15 -12 -22 -15 -12 -16 -12 -5 2 7 9 10 19 6 22 -3 4 -4 7 0 7 3 0
8 -4 11 -9z m-767 -236 c0 -8 -4 -12 -9 -9 -5 3 -6 10 -3 15 9 13 12 11 12 -6z
m773 -9 c0 -2 -8 -10 -17 -17 -16 -13 -17 -12 -4 4 13 16 21 21 21 13z m-5
-65 c3 -5 2 -12 -3 -15 -5 -3 -9 1 -9 9 0 17 3 19 12 6z m5 -175 c0 -2 -8 -10
-17 -17 -16 -13 -17 -12 -4 4 13 16 21 21 21 13z m-538 -78 c-14 -14 -44 -20
-36 -7 3 5 9 7 14 4 5 -3 11 -1 15 5 3 5 9 10 13 10 3 0 1 -5 -6 -12z m248
-18 c0 -4 -7 -7 -15 -6 -23 3 -26 12 -5 13 11 1 20 -2 20 -7z m45 0 c3 -6 -1
-7 -9 -4 -18 7 -21 14 -7 14 6 0 13 -4 16 -10z m39 2 c3 -5 -1 -9 -9 -9 -8 0
-12 4 -9 9 3 4 7 8 9 8 2 0 6 -4 9 -8z m110 0 c3 -5 -1 -9 -9 -9 -8 0 -12 4
-9 9 3 4 7 8 9 8 2 0 6 -4 9 -8z"/>
<path d="M5647 5089 c7 -7 15 -10 18 -7 3 3 -2 9 -12 12 -14 6 -15 5 -6 -5z"/>
<path d="M2815 5070 c-3 -5 -1 -10 4 -10 6 0 11 5 11 10 0 6 -2 10 -4 10 -3 0
-8 -4 -11 -10z"/>
<path d="M2146 5032 c-2 -4 4 -8 14 -8 10 0 16 4 14 8 -3 4 -9 8 -14 8 -5 0
-11 -4 -14 -8z"/>
<path d="M5726 4927 c3 -10 9 -15 12 -12 3 3 0 11 -7 18 -10 9 -11 8 -5 -6z"/>
<path d="M5556 3952 c-3 -5 1 -9 9 -9 8 0 12 4 9 9 -3 4 -7 8 -9 8 -2 0 -6 -4
-9 -8z"/>
<path d="M4866 3305 c4 -8 11 -15 16 -15 6 0 5 6 -2 15 -7 8 -14 15 -16 15 -2
0 -1 -7 2 -15z"/>
<path d="M2917 3240 c-3 -11 -3 -20 -1 -20 2 0 8 9 14 20 6 11 7 20 2 20 -6 0
-12 -9 -15 -20z"/>
<path d="M5685 2981 c-3 -5 -2 -12 3 -15 5 -3 9 1 9 9 0 17 -3 19 -12 6z"/>
<path d="M5860 2641 c0 -6 4 -13 10 -16 6 -3 7 1 4 9 -7 18 -14 21 -14 7z"/>
<path d="M5867 2599 c7 -7 15 -10 18 -7 3 3 -2 9 -12 12 -14 6 -15 5 -6 -5z"/>
<path d="M4600 85 c-7 -8 -16 -13 -20 -10 -5 3 -11 1 -14 -3 -3 -5 7 -8 21 -7
16 0 27 7 29 18 3 21 0 21 -16 2z"/>
</g>
</svg>
